<?xml version="1.0" encoding="utf-8" standalone="no"?>
<!DOCTYPE svg PUBLIC "-//W3C//DTD SVG 1.1//EN"
  "http://www.w3.org/Graphics/SVG/1.1/DTD/svg11.dtd">
<svg xmlns:xlink="http://www.w3.org/1999/xlink" width="360pt" height="144pt" viewBox="0 0 360 144" xmlns="http://www.w3.org/2000/svg" version="1.1">
 <metadata>
  <rdf:RDF xmlns:dc="http://purl.org/dc/elements/1.1/" xmlns:cc="http://creativecommons.org/ns#" xmlns:rdf="http://www.w3.org/1999/02/22-rdf-syntax-ns#">
   <cc:Work>
    <dc:type rdf:resource="http://purl.org/dc/dcmitype/StillImage"/>
    <dc:date>2022-04-21T16:24:49.246707</dc:date>
    <dc:format>image/svg+xml</dc:format>
    <dc:creator>
     <cc:Agent>
      <dc:title>Matplotlib v3.5.0, https://matplotlib.org/</dc:title>
     </cc:Agent>
    </dc:creator>
   </cc:Work>
  </rdf:RDF>
 </metadata>
 <defs>
  <style type="text/css">*{stroke-linejoin: round; stroke-linecap: butt}</style>
 </defs>
 <g id="figure_1">
  <g id="patch_1">
   <path d="M 0 144 
L 360 144 
L 360 0 
L 0 0 
z
" style="fill: #ffffff"/>
  </g>
  <g id="axes_1">
   <g id="patch_2">
    <path d="M 45 128.16 
L 171.818182 128.16 
L 171.818182 17.28 
L 45 17.28 
z
" style="fill: #ffffff"/>
   </g>
   <g id="matplotlib.axis_1">
    <g id="xtick_1">
     <g id="line2d_1">
      <defs>
       <path id="m0d2bfc0d40" d="M 0 0 
L 0 3.5 
" style="stroke: #000000; stroke-width: 0.8"/>
      </defs>
      <g>
       <use xlink:href="#m0d2bfc0d40" x="50.764463" y="128.16" style="stroke: #000000; stroke-width: 0.8"/>
      </g>
     </g>
     <g id="text_1">
      <!-- −20 -->
      <g transform="translate(40.212119 142.758438)scale(0.1 -0.1)">
       <defs>
        <path id="DejaVuSans-2212" d="M 678 2272 
L 4684 2272 
L 4684 1741 
L 678 1741 
L 678 2272 
z
" transform="scale(0.015625)"/>
        <path id="DejaVuSans-32" d="M 1228 531 
L 3431 531 
L 3431 0 
L 469 0 
L 469 531 
Q 828 903 1448 1529 
Q 2069 2156 2228 2338 
Q 2531 2678 2651 2914 
Q 2772 3150 2772 3378 
Q 2772 3750 2511 3984 
Q 2250 4219 1831 4219 
Q 1534 4219 1204 4116 
Q 875 4013 500 3803 
L 500 4441 
Q 881 4594 1212 4672 
Q 1544 4750 1819 4750 
Q 2544 4750 2975 4387 
Q 3406 4025 3406 3419 
Q 3406 3131 3298 2873 
Q 3191 2616 2906 2266 
Q 2828 2175 2409 1742 
Q 1991 1309 1228 531 
z
" transform="scale(0.015625)"/>
        <path id="DejaVuSans-30" d="M 2034 4250 
Q 1547 4250 1301 3770 
Q 1056 3291 1056 2328 
Q 1056 1369 1301 889 
Q 1547 409 2034 409 
Q 2525 409 2770 889 
Q 3016 1369 3016 2328 
Q 3016 3291 2770 3770 
Q 2525 4250 2034 4250 
z
M 2034 4750 
Q 2819 4750 3233 4129 
Q 3647 3509 3647 2328 
Q 3647 1150 3233 529 
Q 2819 -91 2034 -91 
Q 1250 -91 836 529 
Q 422 1150 422 2328 
Q 422 3509 836 4129 
Q 1250 4750 2034 4750 
z
" transform="scale(0.015625)"/>
       </defs>
       <use xlink:href="#DejaVuSans-2212"/>
       <use xlink:href="#DejaVuSans-32" x="83.789062"/>
       <use xlink:href="#DejaVuSans-30" x="147.412109"/>
      </g>
     </g>
    </g>
    <g id="xtick_2">
     <g id="line2d_2">
      <g>
       <use xlink:href="#m0d2bfc0d40" x="108.409091" y="128.16" style="stroke: #000000; stroke-width: 0.8"/>
      </g>
     </g>
     <g id="text_2">
      <!-- 0 -->
      <g transform="translate(105.227841 142.758438)scale(0.1 -0.1)">
       <use xlink:href="#DejaVuSans-30"/>
      </g>
     </g>
    </g>
    <g id="xtick_3">
     <g id="line2d_3">
      <g>
       <use xlink:href="#m0d2bfc0d40" x="166.053719" y="128.16" style="stroke: #000000; stroke-width: 0.8"/>
      </g>
     </g>
     <g id="text_3">
      <!-- 20 -->
      <g transform="translate(159.691219 142.758438)scale(0.1 -0.1)">
       <use xlink:href="#DejaVuSans-32"/>
       <use xlink:href="#DejaVuSans-30" x="63.623047"/>
      </g>
     </g>
    </g>
   </g>
   <g id="matplotlib.axis_2">
    <g id="ytick_1">
     <g id="line2d_4">
      <defs>
       <path id="m7765fc0a2f" d="M 0 0 
L -3.5 0 
" style="stroke: #000000; stroke-width: 0.8"/>
      </defs>
      <g>
       <use xlink:href="#m7765fc0a2f" x="45" y="123.12" style="stroke: #000000; stroke-width: 0.8"/>
      </g>
     </g>
     <g id="text_4">
      <!-- 0.00 -->
      <g transform="translate(15.734375 126.919219)scale(0.1 -0.1)">
       <defs>
        <path id="DejaVuSans-2e" d="M 684 794 
L 1344 794 
L 1344 0 
L 684 0 
L 684 794 
z
" transform="scale(0.015625)"/>
       </defs>
       <use xlink:href="#DejaVuSans-30"/>
       <use xlink:href="#DejaVuSans-2e" x="63.623047"/>
       <use xlink:href="#DejaVuSans-30" x="95.410156"/>
       <use xlink:href="#DejaVuSans-30" x="159.033203"/>
      </g>
     </g>
    </g>
    <g id="ytick_2">
     <g id="line2d_5">
      <g>
       <use xlink:href="#m7765fc0a2f" x="45" y="93.633081" style="stroke: #000000; stroke-width: 0.8"/>
      </g>
     </g>
     <g id="text_5">
      <!-- 0.02 -->
      <g transform="translate(15.734375 97.4323)scale(0.1 -0.1)">
       <use xlink:href="#DejaVuSans-30"/>
       <use xlink:href="#DejaVuSans-2e" x="63.623047"/>
       <use xlink:href="#DejaVuSans-30" x="95.410156"/>
       <use xlink:href="#DejaVuSans-32" x="159.033203"/>
      </g>
     </g>
    </g>
    <g id="ytick_3">
     <g id="line2d_6">
      <g>
       <use xlink:href="#m7765fc0a2f" x="45" y="64.146162" style="stroke: #000000; stroke-width: 0.8"/>
      </g>
     </g>
     <g id="text_6">
      <!-- 0.04 -->
      <g transform="translate(15.734375 67.94538)scale(0.1 -0.1)">
       <defs>
        <path id="DejaVuSans-34" d="M 2419 4116 
L 825 1625 
L 2419 1625 
L 2419 4116 
z
M 2253 4666 
L 3047 4666 
L 3047 1625 
L 3713 1625 
L 3713 1100 
L 3047 1100 
L 3047 0 
L 2419 0 
L 2419 1100 
L 313 1100 
L 313 1709 
L 2253 4666 
z
" transform="scale(0.015625)"/>
       </defs>
       <use xlink:href="#DejaVuSans-30"/>
       <use xlink:href="#DejaVuSans-2e" x="63.623047"/>
       <use xlink:href="#DejaVuSans-30" x="95.410156"/>
       <use xlink:href="#DejaVuSans-34" x="159.033203"/>
      </g>
     </g>
    </g>
    <g id="ytick_4">
     <g id="line2d_7">
      <g>
       <use xlink:href="#m7765fc0a2f" x="45" y="34.659242" style="stroke: #000000; stroke-width: 0.8"/>
      </g>
     </g>
     <g id="text_7">
      <!-- 0.06 -->
      <g transform="translate(15.734375 38.458461)scale(0.1 -0.1)">
       <defs>
        <path id="DejaVuSans-36" d="M 2113 2584 
Q 1688 2584 1439 2293 
Q 1191 2003 1191 1497 
Q 1191 994 1439 701 
Q 1688 409 2113 409 
Q 2538 409 2786 701 
Q 3034 994 3034 1497 
Q 3034 2003 2786 2293 
Q 2538 2584 2113 2584 
z
M 3366 4563 
L 3366 3988 
Q 3128 4100 2886 4159 
Q 2644 4219 2406 4219 
Q 1781 4219 1451 3797 
Q 1122 3375 1075 2522 
Q 1259 2794 1537 2939 
Q 1816 3084 2150 3084 
Q 2853 3084 3261 2657 
Q 3669 2231 3669 1497 
Q 3669 778 3244 343 
Q 2819 -91 2113 -91 
Q 1303 -91 875 529 
Q 447 1150 447 2328 
Q 447 3434 972 4092 
Q 1497 4750 2381 4750 
Q 2619 4750 2861 4703 
Q 3103 4656 3366 4563 
z
" transform="scale(0.015625)"/>
       </defs>
       <use xlink:href="#DejaVuSans-30"/>
       <use xlink:href="#DejaVuSans-2e" x="63.623047"/>
       <use xlink:href="#DejaVuSans-30" x="95.410156"/>
       <use xlink:href="#DejaVuSans-36" x="159.033203"/>
      </g>
     </g>
    </g>
   </g>
   <g id="LineCollection_1">
    <path d="M 50.764463 123.12 
L 50.764463 109.23979 
" clip-path="url(#p4dbab30b72)" style="fill: none; stroke: #1f77b4; stroke-width: 1.5"/>
    <path d="M 53.646694 123.12 
L 53.646694 109.25583 
" clip-path="url(#p4dbab30b72)" style="fill: none; stroke: #1f77b4; stroke-width: 1.5"/>
    <path d="M 56.528926 123.12 
L 56.528926 109.274723 
" clip-path="url(#p4dbab30b72)" style="fill: none; stroke: #1f77b4; stroke-width: 1.5"/>
    <path d="M 59.411157 123.12 
L 59.411157 109.281666 
" clip-path="url(#p4dbab30b72)" style="fill: none; stroke: #1f77b4; stroke-width: 1.5"/>
    <path d="M 62.293388 123.12 
L 62.293388 109.282419 
" clip-path="url(#p4dbab30b72)" style="fill: none; stroke: #1f77b4; stroke-width: 1.5"/>
    <path d="M 65.17562 123.12 
L 65.17562 109.280255 
" clip-path="url(#p4dbab30b72)" style="fill: none; stroke: #1f77b4; stroke-width: 1.5"/>
    <path d="M 68.057851 123.12 
L 68.057851 109.280866 
" clip-path="url(#p4dbab30b72)" style="fill: none; stroke: #1f77b4; stroke-width: 1.5"/>
    <path d="M 70.940083 123.12 
L 70.940083 109.288916 
" clip-path="url(#p4dbab30b72)" style="fill: none; stroke: #1f77b4; stroke-width: 1.5"/>
    <path d="M 73.822314 123.12 
L 73.822314 109.293012 
" clip-path="url(#p4dbab30b72)" style="fill: none; stroke: #1f77b4; stroke-width: 1.5"/>
    <path d="M 76.704545 123.12 
L 76.704545 109.29138 
" clip-path="url(#p4dbab30b72)" style="fill: none; stroke: #1f77b4; stroke-width: 1.5"/>
    <path d="M 79.586777 123.12 
L 79.586777 109.291469 
" clip-path="url(#p4dbab30b72)" style="fill: none; stroke: #1f77b4; stroke-width: 1.5"/>
    <path d="M 82.469008 123.12 
L 82.469008 109.291283 
" clip-path="url(#p4dbab30b72)" style="fill: none; stroke: #1f77b4; stroke-width: 1.5"/>
    <path d="M 85.35124 123.12 
L 85.35124 109.288953 
" clip-path="url(#p4dbab30b72)" style="fill: none; stroke: #1f77b4; stroke-width: 1.5"/>
    <path d="M 88.233471 123.12 
L 88.233471 109.290672 
" clip-path="url(#p4dbab30b72)" style="fill: none; stroke: #1f77b4; stroke-width: 1.5"/>
    <path d="M 91.115702 123.12 
L 91.115702 109.29232 
" clip-path="url(#p4dbab30b72)" style="fill: none; stroke: #1f77b4; stroke-width: 1.5"/>
    <path d="M 93.997934 123.12 
L 93.997934 109.288453 
" clip-path="url(#p4dbab30b72)" style="fill: none; stroke: #1f77b4; stroke-width: 1.5"/>
    <path d="M 96.880165 123.12 
L 96.880165 109.294311 
" clip-path="url(#p4dbab30b72)" style="fill: none; stroke: #1f77b4; stroke-width: 1.5"/>
    <path d="M 99.762397 123.12 
L 99.762397 109.294122 
" clip-path="url(#p4dbab30b72)" style="fill: none; stroke: #1f77b4; stroke-width: 1.5"/>
    <path d="M 102.644628 123.12 
L 102.644628 109.287166 
" clip-path="url(#p4dbab30b72)" style="fill: none; stroke: #1f77b4; stroke-width: 1.5"/>
    <path d="M 105.52686 123.12 
L 105.52686 87.205689 
" clip-path="url(#p4dbab30b72)" style="fill: none; stroke: #1f77b4; stroke-width: 1.5"/>
    <path d="M 108.409091 123.12 
L 108.409091 22.389369 
" clip-path="url(#p4dbab30b72)" style="fill: none; stroke: #1f77b4; stroke-width: 1.5"/>
    <path d="M 111.291322 123.12 
L 111.291322 68.801526 
" clip-path="url(#p4dbab30b72)" style="fill: none; stroke: #1f77b4; stroke-width: 1.5"/>
    <path d="M 114.173554 123.12 
L 114.173554 109.29309 
" clip-path="url(#p4dbab30b72)" style="fill: none; stroke: #1f77b4; stroke-width: 1.5"/>
    <path d="M 117.055785 123.12 
L 117.055785 106.108287 
" clip-path="url(#p4dbab30b72)" style="fill: none; stroke: #1f77b4; stroke-width: 1.5"/>
    <path d="M 119.938017 123.12 
L 119.938017 109.291259 
" clip-path="url(#p4dbab30b72)" style="fill: none; stroke: #1f77b4; stroke-width: 1.5"/>
    <path d="M 122.820248 123.12 
L 122.820248 109.254641 
" clip-path="url(#p4dbab30b72)" style="fill: none; stroke: #1f77b4; stroke-width: 1.5"/>
    <path d="M 125.702479 123.12 
L 125.702479 109.275288 
" clip-path="url(#p4dbab30b72)" style="fill: none; stroke: #1f77b4; stroke-width: 1.5"/>
    <path d="M 128.584711 123.12 
L 128.584711 109.251199 
" clip-path="url(#p4dbab30b72)" style="fill: none; stroke: #1f77b4; stroke-width: 1.5"/>
    <path d="M 131.466942 123.12 
L 131.466942 109.250728 
" clip-path="url(#p4dbab30b72)" style="fill: none; stroke: #1f77b4; stroke-width: 1.5"/>
    <path d="M 134.349174 123.12 
L 134.349174 109.2495 
" clip-path="url(#p4dbab30b72)" style="fill: none; stroke: #1f77b4; stroke-width: 1.5"/>
    <path d="M 137.231405 123.12 
L 137.231405 109.240511 
" clip-path="url(#p4dbab30b72)" style="fill: none; stroke: #1f77b4; stroke-width: 1.5"/>
    <path d="M 140.113636 123.12 
L 140.113636 109.226751 
" clip-path="url(#p4dbab30b72)" style="fill: none; stroke: #1f77b4; stroke-width: 1.5"/>
    <path d="M 142.995868 123.12 
L 142.995868 109.225862 
" clip-path="url(#p4dbab30b72)" style="fill: none; stroke: #1f77b4; stroke-width: 1.5"/>
    <path d="M 145.878099 123.12 
L 145.878099 109.213988 
" clip-path="url(#p4dbab30b72)" style="fill: none; stroke: #1f77b4; stroke-width: 1.5"/>
    <path d="M 148.760331 123.12 
L 148.760331 109.153577 
" clip-path="url(#p4dbab30b72)" style="fill: none; stroke: #1f77b4; stroke-width: 1.5"/>
    <path d="M 151.642562 123.12 
L 151.642562 109.19658 
" clip-path="url(#p4dbab30b72)" style="fill: none; stroke: #1f77b4; stroke-width: 1.5"/>
    <path d="M 154.524793 123.12 
L 154.524793 109.2284 
" clip-path="url(#p4dbab30b72)" style="fill: none; stroke: #1f77b4; stroke-width: 1.5"/>
    <path d="M 157.407025 123.12 
L 157.407025 109.225746 
" clip-path="url(#p4dbab30b72)" style="fill: none; stroke: #1f77b4; stroke-width: 1.5"/>
    <path d="M 160.289256 123.12 
L 160.289256 109.177537 
" clip-path="url(#p4dbab30b72)" style="fill: none; stroke: #1f77b4; stroke-width: 1.5"/>
    <path d="M 163.171488 123.12 
L 163.171488 109.136208 
" clip-path="url(#p4dbab30b72)" style="fill: none; stroke: #1f77b4; stroke-width: 1.5"/>
    <path d="M 166.053719 123.12 
L 166.053719 109.16126 
" clip-path="url(#p4dbab30b72)" style="fill: none; stroke: #1f77b4; stroke-width: 1.5"/>
   </g>
   <g id="line2d_8">
    <defs>
     <path id="m1536953a2b" d="M 0 1 
C 0.265203 1 0.51958 0.894634 0.707107 0.707107 
C 0.894634 0.51958 1 0.265203 1 0 
C 1 -0.265203 0.894634 -0.51958 0.707107 -0.707107 
C 0.51958 -0.894634 0.265203 -1 0 -1 
C -0.265203 -1 -0.51958 -0.894634 -0.707107 -0.707107 
C -0.894634 -0.51958 -1 -0.265203 -1 0 
C -1 0.265203 -0.894634 0.51958 -0.707107 0.707107 
C -0.51958 0.894634 -0.265203 1 0 1 
z
" style="stroke: #1f77b4"/>
    </defs>
    <g clip-path="url(#p4dbab30b72)">
     <use xlink:href="#m1536953a2b" x="50.764463" y="109.23979" style="fill: #1f77b4; stroke: #1f77b4"/>
     <use xlink:href="#m1536953a2b" x="53.646694" y="109.25583" style="fill: #1f77b4; stroke: #1f77b4"/>
     <use xlink:href="#m1536953a2b" x="56.528926" y="109.274723" style="fill: #1f77b4; stroke: #1f77b4"/>
     <use xlink:href="#m1536953a2b" x="59.411157" y="109.281666" style="fill: #1f77b4; stroke: #1f77b4"/>
     <use xlink:href="#m1536953a2b" x="62.293388" y="109.282419" style="fill: #1f77b4; stroke: #1f77b4"/>
     <use xlink:href="#m1536953a2b" x="65.17562" y="109.280255" style="fill: #1f77b4; stroke: #1f77b4"/>
     <use xlink:href="#m1536953a2b" x="68.057851" y="109.280866" style="fill: #1f77b4; stroke: #1f77b4"/>
     <use xlink:href="#m1536953a2b" x="70.940083" y="109.288916" style="fill: #1f77b4; stroke: #1f77b4"/>
     <use xlink:href="#m1536953a2b" x="73.822314" y="109.293012" style="fill: #1f77b4; stroke: #1f77b4"/>
     <use xlink:href="#m1536953a2b" x="76.704545" y="109.29138" style="fill: #1f77b4; stroke: #1f77b4"/>
     <use xlink:href="#m1536953a2b" x="79.586777" y="109.291469" style="fill: #1f77b4; stroke: #1f77b4"/>
     <use xlink:href="#m1536953a2b" x="82.469008" y="109.291283" style="fill: #1f77b4; stroke: #1f77b4"/>
     <use xlink:href="#m1536953a2b" x="85.35124" y="109.288953" style="fill: #1f77b4; stroke: #1f77b4"/>
     <use xlink:href="#m1536953a2b" x="88.233471" y="109.290672" style="fill: #1f77b4; stroke: #1f77b4"/>
     <use xlink:href="#m1536953a2b" x="91.115702" y="109.29232" style="fill: #1f77b4; stroke: #1f77b4"/>
     <use xlink:href="#m1536953a2b" x="93.997934" y="109.288453" style="fill: #1f77b4; stroke: #1f77b4"/>
     <use xlink:href="#m1536953a2b" x="96.880165" y="109.294311" style="fill: #1f77b4; stroke: #1f77b4"/>
     <use xlink:href="#m1536953a2b" x="99.762397" y="109.294122" style="fill: #1f77b4; stroke: #1f77b4"/>
     <use xlink:href="#m1536953a2b" x="102.644628" y="109.287166" style="fill: #1f77b4; stroke: #1f77b4"/>
     <use xlink:href="#m1536953a2b" x="105.52686" y="87.205689" style="fill: #1f77b4; stroke: #1f77b4"/>
     <use xlink:href="#m1536953a2b" x="108.409091" y="22.389369" style="fill: #1f77b4; stroke: #1f77b4"/>
     <use xlink:href="#m1536953a2b" x="111.291322" y="68.801526" style="fill: #1f77b4; stroke: #1f77b4"/>
     <use xlink:href="#m1536953a2b" x="114.173554" y="109.29309" style="fill: #1f77b4; stroke: #1f77b4"/>
     <use xlink:href="#m1536953a2b" x="117.055785" y="106.108287" style="fill: #1f77b4; stroke: #1f77b4"/>
     <use xlink:href="#m1536953a2b" x="119.938017" y="109.291259" style="fill: #1f77b4; stroke: #1f77b4"/>
     <use xlink:href="#m1536953a2b" x="122.820248" y="109.254641" style="fill: #1f77b4; stroke: #1f77b4"/>
     <use xlink:href="#m1536953a2b" x="125.702479" y="109.275288" style="fill: #1f77b4; stroke: #1f77b4"/>
     <use xlink:href="#m1536953a2b" x="128.584711" y="109.251199" style="fill: #1f77b4; stroke: #1f77b4"/>
     <use xlink:href="#m1536953a2b" x="131.466942" y="109.250728" style="fill: #1f77b4; stroke: #1f77b4"/>
     <use xlink:href="#m1536953a2b" x="134.349174" y="109.2495" style="fill: #1f77b4; stroke: #1f77b4"/>
     <use xlink:href="#m1536953a2b" x="137.231405" y="109.240511" style="fill: #1f77b4; stroke: #1f77b4"/>
     <use xlink:href="#m1536953a2b" x="140.113636" y="109.226751" style="fill: #1f77b4; stroke: #1f77b4"/>
     <use xlink:href="#m1536953a2b" x="142.995868" y="109.225862" style="fill: #1f77b4; stroke: #1f77b4"/>
     <use xlink:href="#m1536953a2b" x="145.878099" y="109.213988" style="fill: #1f77b4; stroke: #1f77b4"/>
     <use xlink:href="#m1536953a2b" x="148.760331" y="109.153577" style="fill: #1f77b4; stroke: #1f77b4"/>
     <use xlink:href="#m1536953a2b" x="151.642562" y="109.19658" style="fill: #1f77b4; stroke: #1f77b4"/>
     <use xlink:href="#m1536953a2b" x="154.524793" y="109.2284" style="fill: #1f77b4; stroke: #1f77b4"/>
     <use xlink:href="#m1536953a2b" x="157.407025" y="109.225746" style="fill: #1f77b4; stroke: #1f77b4"/>
     <use xlink:href="#m1536953a2b" x="160.289256" y="109.177537" style="fill: #1f77b4; stroke: #1f77b4"/>
     <use xlink:href="#m1536953a2b" x="163.171488" y="109.136208" style="fill: #1f77b4; stroke: #1f77b4"/>
     <use xlink:href="#m1536953a2b" x="166.053719" y="109.16126" style="fill: #1f77b4; stroke: #1f77b4"/>
    </g>
   </g>
   <g id="line2d_9">
    <path d="M 50.764463 123.12 
L 166.053719 123.12 
" clip-path="url(#p4dbab30b72)" style="fill: none; stroke: #1f77b4; stroke-width: 0.5; stroke-linecap: square"/>
   </g>
   <g id="patch_3">
    <path d="M 45 128.16 
L 45 17.28 
" style="fill: none; stroke: #000000; stroke-width: 0.8; stroke-linejoin: miter; stroke-linecap: square"/>
   </g>
   <g id="patch_4">
    <path d="M 171.818182 128.16 
L 171.818182 17.28 
" style="fill: none; stroke: #000000; stroke-width: 0.8; stroke-linejoin: miter; stroke-linecap: square"/>
   </g>
   <g id="patch_5">
    <path d="M 45 128.16 
L 171.818182 128.16 
" style="fill: none; stroke: #000000; stroke-width: 0.8; stroke-linejoin: miter; stroke-linecap: square"/>
   </g>
   <g id="patch_6">
    <path d="M 45 17.28 
L 171.818182 17.28 
" style="fill: none; stroke: #000000; stroke-width: 0.8; stroke-linejoin: miter; stroke-linecap: square"/>
   </g>
   <g id="text_8">
    <!-- forward attention score -->
    <g transform="translate(38.103153 11.28)scale(0.12 -0.12)">
     <defs>
      <path id="DejaVuSans-66" d="M 2375 4863 
L 2375 4384 
L 1825 4384 
Q 1516 4384 1395 4259 
Q 1275 4134 1275 3809 
L 1275 3500 
L 2222 3500 
L 2222 3053 
L 1275 3053 
L 1275 0 
L 697 0 
L 697 3053 
L 147 3053 
L 147 3500 
L 697 3500 
L 697 3744 
Q 697 4328 969 4595 
Q 1241 4863 1831 4863 
L 2375 4863 
z
" transform="scale(0.015625)"/>
      <path id="DejaVuSans-6f" d="M 1959 3097 
Q 1497 3097 1228 2736 
Q 959 2375 959 1747 
Q 959 1119 1226 758 
Q 1494 397 1959 397 
Q 2419 397 2687 759 
Q 2956 1122 2956 1747 
Q 2956 2369 2687 2733 
Q 2419 3097 1959 3097 
z
M 1959 3584 
Q 2709 3584 3137 3096 
Q 3566 2609 3566 1747 
Q 3566 888 3137 398 
Q 2709 -91 1959 -91 
Q 1206 -91 779 398 
Q 353 888 353 1747 
Q 353 2609 779 3096 
Q 1206 3584 1959 3584 
z
" transform="scale(0.015625)"/>
      <path id="DejaVuSans-72" d="M 2631 2963 
Q 2534 3019 2420 3045 
Q 2306 3072 2169 3072 
Q 1681 3072 1420 2755 
Q 1159 2438 1159 1844 
L 1159 0 
L 581 0 
L 581 3500 
L 1159 3500 
L 1159 2956 
Q 1341 3275 1631 3429 
Q 1922 3584 2338 3584 
Q 2397 3584 2469 3576 
Q 2541 3569 2628 3553 
L 2631 2963 
z
" transform="scale(0.015625)"/>
      <path id="DejaVuSans-77" d="M 269 3500 
L 844 3500 
L 1563 769 
L 2278 3500 
L 2956 3500 
L 3675 769 
L 4391 3500 
L 4966 3500 
L 4050 0 
L 3372 0 
L 2619 2869 
L 1863 0 
L 1184 0 
L 269 3500 
z
" transform="scale(0.015625)"/>
      <path id="DejaVuSans-61" d="M 2194 1759 
Q 1497 1759 1228 1600 
Q 959 1441 959 1056 
Q 959 750 1161 570 
Q 1363 391 1709 391 
Q 2188 391 2477 730 
Q 2766 1069 2766 1631 
L 2766 1759 
L 2194 1759 
z
M 3341 1997 
L 3341 0 
L 2766 0 
L 2766 531 
Q 2569 213 2275 61 
Q 1981 -91 1556 -91 
Q 1019 -91 701 211 
Q 384 513 384 1019 
Q 384 1609 779 1909 
Q 1175 2209 1959 2209 
L 2766 2209 
L 2766 2266 
Q 2766 2663 2505 2880 
Q 2244 3097 1772 3097 
Q 1472 3097 1187 3025 
Q 903 2953 641 2809 
L 641 3341 
Q 956 3463 1253 3523 
Q 1550 3584 1831 3584 
Q 2591 3584 2966 3190 
Q 3341 2797 3341 1997 
z
" transform="scale(0.015625)"/>
      <path id="DejaVuSans-64" d="M 2906 2969 
L 2906 4863 
L 3481 4863 
L 3481 0 
L 2906 0 
L 2906 525 
Q 2725 213 2448 61 
Q 2172 -91 1784 -91 
Q 1150 -91 751 415 
Q 353 922 353 1747 
Q 353 2572 751 3078 
Q 1150 3584 1784 3584 
Q 2172 3584 2448 3432 
Q 2725 3281 2906 2969 
z
M 947 1747 
Q 947 1113 1208 752 
Q 1469 391 1925 391 
Q 2381 391 2643 752 
Q 2906 1113 2906 1747 
Q 2906 2381 2643 2742 
Q 2381 3103 1925 3103 
Q 1469 3103 1208 2742 
Q 947 2381 947 1747 
z
" transform="scale(0.015625)"/>
      <path id="DejaVuSans-20" transform="scale(0.015625)"/>
      <path id="DejaVuSans-74" d="M 1172 4494 
L 1172 3500 
L 2356 3500 
L 2356 3053 
L 1172 3053 
L 1172 1153 
Q 1172 725 1289 603 
Q 1406 481 1766 481 
L 2356 481 
L 2356 0 
L 1766 0 
Q 1100 0 847 248 
Q 594 497 594 1153 
L 594 3053 
L 172 3053 
L 172 3500 
L 594 3500 
L 594 4494 
L 1172 4494 
z
" transform="scale(0.015625)"/>
      <path id="DejaVuSans-65" d="M 3597 1894 
L 3597 1613 
L 953 1613 
Q 991 1019 1311 708 
Q 1631 397 2203 397 
Q 2534 397 2845 478 
Q 3156 559 3463 722 
L 3463 178 
Q 3153 47 2828 -22 
Q 2503 -91 2169 -91 
Q 1331 -91 842 396 
Q 353 884 353 1716 
Q 353 2575 817 3079 
Q 1281 3584 2069 3584 
Q 2775 3584 3186 3129 
Q 3597 2675 3597 1894 
z
M 3022 2063 
Q 3016 2534 2758 2815 
Q 2500 3097 2075 3097 
Q 1594 3097 1305 2825 
Q 1016 2553 972 2059 
L 3022 2063 
z
" transform="scale(0.015625)"/>
      <path id="DejaVuSans-6e" d="M 3513 2113 
L 3513 0 
L 2938 0 
L 2938 2094 
Q 2938 2591 2744 2837 
Q 2550 3084 2163 3084 
Q 1697 3084 1428 2787 
Q 1159 2491 1159 1978 
L 1159 0 
L 581 0 
L 581 3500 
L 1159 3500 
L 1159 2956 
Q 1366 3272 1645 3428 
Q 1925 3584 2291 3584 
Q 2894 3584 3203 3211 
Q 3513 2838 3513 2113 
z
" transform="scale(0.015625)"/>
      <path id="DejaVuSans-69" d="M 603 3500 
L 1178 3500 
L 1178 0 
L 603 0 
L 603 3500 
z
M 603 4863 
L 1178 4863 
L 1178 4134 
L 603 4134 
L 603 4863 
z
" transform="scale(0.015625)"/>
      <path id="DejaVuSans-73" d="M 2834 3397 
L 2834 2853 
Q 2591 2978 2328 3040 
Q 2066 3103 1784 3103 
Q 1356 3103 1142 2972 
Q 928 2841 928 2578 
Q 928 2378 1081 2264 
Q 1234 2150 1697 2047 
L 1894 2003 
Q 2506 1872 2764 1633 
Q 3022 1394 3022 966 
Q 3022 478 2636 193 
Q 2250 -91 1575 -91 
Q 1294 -91 989 -36 
Q 684 19 347 128 
L 347 722 
Q 666 556 975 473 
Q 1284 391 1588 391 
Q 1994 391 2212 530 
Q 2431 669 2431 922 
Q 2431 1156 2273 1281 
Q 2116 1406 1581 1522 
L 1381 1569 
Q 847 1681 609 1914 
Q 372 2147 372 2553 
Q 372 3047 722 3315 
Q 1072 3584 1716 3584 
Q 2034 3584 2315 3537 
Q 2597 3491 2834 3397 
z
" transform="scale(0.015625)"/>
      <path id="DejaVuSans-63" d="M 3122 3366 
L 3122 2828 
Q 2878 2963 2633 3030 
Q 2388 3097 2138 3097 
Q 1578 3097 1268 2742 
Q 959 2388 959 1747 
Q 959 1106 1268 751 
Q 1578 397 2138 397 
Q 2388 397 2633 464 
Q 2878 531 3122 666 
L 3122 134 
Q 2881 22 2623 -34 
Q 2366 -91 2075 -91 
Q 1284 -91 818 406 
Q 353 903 353 1747 
Q 353 2603 823 3093 
Q 1294 3584 2113 3584 
Q 2378 3584 2631 3529 
Q 2884 3475 3122 3366 
z
" transform="scale(0.015625)"/>
     </defs>
     <use xlink:href="#DejaVuSans-66"/>
     <use xlink:href="#DejaVuSans-6f" x="35.205078"/>
     <use xlink:href="#DejaVuSans-72" x="96.386719"/>
     <use xlink:href="#DejaVuSans-77" x="137.5"/>
     <use xlink:href="#DejaVuSans-61" x="219.287109"/>
     <use xlink:href="#DejaVuSans-72" x="280.566406"/>
     <use xlink:href="#DejaVuSans-64" x="319.929688"/>
     <use xlink:href="#DejaVuSans-20" x="383.40625"/>
     <use xlink:href="#DejaVuSans-61" x="415.193359"/>
     <use xlink:href="#DejaVuSans-74" x="476.472656"/>
     <use xlink:href="#DejaVuSans-74" x="515.681641"/>
     <use xlink:href="#DejaVuSans-65" x="554.890625"/>
     <use xlink:href="#DejaVuSans-6e" x="616.414062"/>
     <use xlink:href="#DejaVuSans-74" x="679.792969"/>
     <use xlink:href="#DejaVuSans-69" x="719.001953"/>
     <use xlink:href="#DejaVuSans-6f" x="746.785156"/>
     <use xlink:href="#DejaVuSans-6e" x="807.966797"/>
     <use xlink:href="#DejaVuSans-20" x="871.345703"/>
     <use xlink:href="#DejaVuSans-73" x="903.132812"/>
     <use xlink:href="#DejaVuSans-63" x="955.232422"/>
     <use xlink:href="#DejaVuSans-6f" x="1010.212891"/>
     <use xlink:href="#DejaVuSans-72" x="1071.394531"/>
     <use xlink:href="#DejaVuSans-65" x="1110.257812"/>
    </g>
   </g>
  </g>
  <g id="axes_2">
   <g id="patch_7">
    <path d="M 197.181818 128.16 
L 324 128.16 
L 324 17.28 
L 197.181818 17.28 
z
" style="fill: #ffffff"/>
   </g>
   <g id="matplotlib.axis_3">
    <g id="xtick_4">
     <g id="line2d_10">
      <g>
       <use xlink:href="#m0d2bfc0d40" x="202.946281" y="128.16" style="stroke: #000000; stroke-width: 0.8"/>
      </g>
     </g>
     <g id="text_9">
      <!-- −20 -->
      <g transform="translate(192.393937 142.758438)scale(0.1 -0.1)">
       <use xlink:href="#DejaVuSans-2212"/>
       <use xlink:href="#DejaVuSans-32" x="83.789062"/>
       <use xlink:href="#DejaVuSans-30" x="147.412109"/>
      </g>
     </g>
    </g>
    <g id="xtick_5">
     <g id="line2d_11">
      <g>
       <use xlink:href="#m0d2bfc0d40" x="260.590909" y="128.16" style="stroke: #000000; stroke-width: 0.8"/>
      </g>
     </g>
     <g id="text_10">
      <!-- 0 -->
      <g transform="translate(257.409659 142.758438)scale(0.1 -0.1)">
       <use xlink:href="#DejaVuSans-30"/>
      </g>
     </g>
    </g>
    <g id="xtick_6">
     <g id="line2d_12">
      <g>
       <use xlink:href="#m0d2bfc0d40" x="318.235537" y="128.16" style="stroke: #000000; stroke-width: 0.8"/>
      </g>
     </g>
     <g id="text_11">
      <!-- 20 -->
      <g transform="translate(311.873037 142.758438)scale(0.1 -0.1)">
       <use xlink:href="#DejaVuSans-32"/>
       <use xlink:href="#DejaVuSans-30" x="63.623047"/>
      </g>
     </g>
    </g>
   </g>
   <g id="matplotlib.axis_4">
    <g id="ytick_5">
     <g id="line2d_13">
      <g>
       <use xlink:href="#m7765fc0a2f" x="197.181818" y="123.12" style="stroke: #000000; stroke-width: 0.8"/>
      </g>
     </g>
    </g>
    <g id="ytick_6">
     <g id="line2d_14">
      <g>
       <use xlink:href="#m7765fc0a2f" x="197.181818" y="93.633081" style="stroke: #000000; stroke-width: 0.8"/>
      </g>
     </g>
    </g>
    <g id="ytick_7">
     <g id="line2d_15">
      <g>
       <use xlink:href="#m7765fc0a2f" x="197.181818" y="64.146162" style="stroke: #000000; stroke-width: 0.8"/>
      </g>
     </g>
    </g>
    <g id="ytick_8">
     <g id="line2d_16">
      <g>
       <use xlink:href="#m7765fc0a2f" x="197.181818" y="34.659242" style="stroke: #000000; stroke-width: 0.8"/>
      </g>
     </g>
    </g>
   </g>
   <g id="LineCollection_2">
    <path d="M 202.946281 123.12 
L 202.946281 109.237725 
" clip-path="url(#p574135d9ac)" style="fill: none; stroke: #1f77b4; stroke-width: 1.5"/>
    <path d="M 205.828512 123.12 
L 205.828512 109.190056 
" clip-path="url(#p574135d9ac)" style="fill: none; stroke: #1f77b4; stroke-width: 1.5"/>
    <path d="M 208.710744 123.12 
L 208.710744 109.251937 
" clip-path="url(#p574135d9ac)" style="fill: none; stroke: #1f77b4; stroke-width: 1.5"/>
    <path d="M 211.592975 123.12 
L 211.592975 109.267931 
" clip-path="url(#p574135d9ac)" style="fill: none; stroke: #1f77b4; stroke-width: 1.5"/>
    <path d="M 214.475207 123.12 
L 214.475207 109.234985 
" clip-path="url(#p574135d9ac)" style="fill: none; stroke: #1f77b4; stroke-width: 1.5"/>
    <path d="M 217.357438 123.12 
L 217.357438 109.208095 
" clip-path="url(#p574135d9ac)" style="fill: none; stroke: #1f77b4; stroke-width: 1.5"/>
    <path d="M 220.239669 123.12 
L 220.239669 109.194174 
" clip-path="url(#p574135d9ac)" style="fill: none; stroke: #1f77b4; stroke-width: 1.5"/>
    <path d="M 223.121901 123.12 
L 223.121901 109.239946 
" clip-path="url(#p574135d9ac)" style="fill: none; stroke: #1f77b4; stroke-width: 1.5"/>
    <path d="M 226.004132 123.12 
L 226.004132 109.248536 
" clip-path="url(#p574135d9ac)" style="fill: none; stroke: #1f77b4; stroke-width: 1.5"/>
    <path d="M 228.886364 123.12 
L 228.886364 109.22947 
" clip-path="url(#p574135d9ac)" style="fill: none; stroke: #1f77b4; stroke-width: 1.5"/>
    <path d="M 231.768595 123.12 
L 231.768595 109.217585 
" clip-path="url(#p574135d9ac)" style="fill: none; stroke: #1f77b4; stroke-width: 1.5"/>
    <path d="M 234.650826 123.12 
L 234.650826 109.254402 
" clip-path="url(#p574135d9ac)" style="fill: none; stroke: #1f77b4; stroke-width: 1.5"/>
    <path d="M 237.533058 123.12 
L 237.533058 109.260493 
" clip-path="url(#p574135d9ac)" style="fill: none; stroke: #1f77b4; stroke-width: 1.5"/>
    <path d="M 240.415289 123.12 
L 240.415289 109.257262 
" clip-path="url(#p574135d9ac)" style="fill: none; stroke: #1f77b4; stroke-width: 1.5"/>
    <path d="M 243.297521 123.12 
L 243.297521 109.237045 
" clip-path="url(#p574135d9ac)" style="fill: none; stroke: #1f77b4; stroke-width: 1.5"/>
    <path d="M 246.179752 123.12 
L 246.179752 109.271492 
" clip-path="url(#p574135d9ac)" style="fill: none; stroke: #1f77b4; stroke-width: 1.5"/>
    <path d="M 249.061983 123.12 
L 249.061983 109.240821 
" clip-path="url(#p574135d9ac)" style="fill: none; stroke: #1f77b4; stroke-width: 1.5"/>
    <path d="M 251.944215 123.12 
L 251.944215 109.078188 
" clip-path="url(#p574135d9ac)" style="fill: none; stroke: #1f77b4; stroke-width: 1.5"/>
    <path d="M 254.826446 123.12 
L 254.826446 106.614059 
" clip-path="url(#p574135d9ac)" style="fill: none; stroke: #1f77b4; stroke-width: 1.5"/>
    <path d="M 257.708678 123.12 
L 257.708678 53.22346 
" clip-path="url(#p574135d9ac)" style="fill: none; stroke: #1f77b4; stroke-width: 1.5"/>
    <path d="M 260.590909 123.12 
L 260.590909 22.32 
" clip-path="url(#p574135d9ac)" style="fill: none; stroke: #1f77b4; stroke-width: 1.5"/>
    <path d="M 263.47314 123.12 
L 263.47314 70.538992 
" clip-path="url(#p574135d9ac)" style="fill: none; stroke: #1f77b4; stroke-width: 1.5"/>
    <path d="M 266.355372 123.12 
L 266.355372 109.27567 
" clip-path="url(#p574135d9ac)" style="fill: none; stroke: #1f77b4; stroke-width: 1.5"/>
    <path d="M 269.237603 123.12 
L 269.237603 109.023371 
" clip-path="url(#p574135d9ac)" style="fill: none; stroke: #1f77b4; stroke-width: 1.5"/>
    <path d="M 272.119835 123.12 
L 272.119835 109.270763 
" clip-path="url(#p574135d9ac)" style="fill: none; stroke: #1f77b4; stroke-width: 1.5"/>
    <path d="M 275.002066 123.12 
L 275.002066 109.265225 
" clip-path="url(#p574135d9ac)" style="fill: none; stroke: #1f77b4; stroke-width: 1.5"/>
    <path d="M 277.884298 123.12 
L 277.884298 109.282752 
" clip-path="url(#p574135d9ac)" style="fill: none; stroke: #1f77b4; stroke-width: 1.5"/>
    <path d="M 280.766529 123.12 
L 280.766529 109.280381 
" clip-path="url(#p574135d9ac)" style="fill: none; stroke: #1f77b4; stroke-width: 1.5"/>
    <path d="M 283.64876 123.12 
L 283.64876 109.278391 
" clip-path="url(#p574135d9ac)" style="fill: none; stroke: #1f77b4; stroke-width: 1.5"/>
    <path d="M 286.530992 123.12 
L 286.530992 109.28489 
" clip-path="url(#p574135d9ac)" style="fill: none; stroke: #1f77b4; stroke-width: 1.5"/>
    <path d="M 289.413223 123.12 
L 289.413223 109.282562 
" clip-path="url(#p574135d9ac)" style="fill: none; stroke: #1f77b4; stroke-width: 1.5"/>
    <path d="M 292.295455 123.12 
L 292.295455 109.277624 
" clip-path="url(#p574135d9ac)" style="fill: none; stroke: #1f77b4; stroke-width: 1.5"/>
    <path d="M 295.177686 123.12 
L 295.177686 109.262219 
" clip-path="url(#p574135d9ac)" style="fill: none; stroke: #1f77b4; stroke-width: 1.5"/>
    <path d="M 298.059917 123.12 
L 298.059917 109.263351 
" clip-path="url(#p574135d9ac)" style="fill: none; stroke: #1f77b4; stroke-width: 1.5"/>
    <path d="M 300.942149 123.12 
L 300.942149 109.27128 
" clip-path="url(#p574135d9ac)" style="fill: none; stroke: #1f77b4; stroke-width: 1.5"/>
    <path d="M 303.82438 123.12 
L 303.82438 109.249562 
" clip-path="url(#p574135d9ac)" style="fill: none; stroke: #1f77b4; stroke-width: 1.5"/>
    <path d="M 306.706612 123.12 
L 306.706612 109.245455 
" clip-path="url(#p574135d9ac)" style="fill: none; stroke: #1f77b4; stroke-width: 1.5"/>
    <path d="M 309.588843 123.12 
L 309.588843 109.270967 
" clip-path="url(#p574135d9ac)" style="fill: none; stroke: #1f77b4; stroke-width: 1.5"/>
    <path d="M 312.471074 123.12 
L 312.471074 109.238632 
" clip-path="url(#p574135d9ac)" style="fill: none; stroke: #1f77b4; stroke-width: 1.5"/>
    <path d="M 315.353306 123.12 
L 315.353306 109.219392 
" clip-path="url(#p574135d9ac)" style="fill: none; stroke: #1f77b4; stroke-width: 1.5"/>
    <path d="M 318.235537 123.12 
L 318.235537 109.190242 
" clip-path="url(#p574135d9ac)" style="fill: none; stroke: #1f77b4; stroke-width: 1.5"/>
   </g>
   <g id="line2d_17">
    <g clip-path="url(#p574135d9ac)">
     <use xlink:href="#m1536953a2b" x="202.946281" y="109.237725" style="fill: #1f77b4; stroke: #1f77b4"/>
     <use xlink:href="#m1536953a2b" x="205.828512" y="109.190056" style="fill: #1f77b4; stroke: #1f77b4"/>
     <use xlink:href="#m1536953a2b" x="208.710744" y="109.251937" style="fill: #1f77b4; stroke: #1f77b4"/>
     <use xlink:href="#m1536953a2b" x="211.592975" y="109.267931" style="fill: #1f77b4; stroke: #1f77b4"/>
     <use xlink:href="#m1536953a2b" x="214.475207" y="109.234985" style="fill: #1f77b4; stroke: #1f77b4"/>
     <use xlink:href="#m1536953a2b" x="217.357438" y="109.208095" style="fill: #1f77b4; stroke: #1f77b4"/>
     <use xlink:href="#m1536953a2b" x="220.239669" y="109.194174" style="fill: #1f77b4; stroke: #1f77b4"/>
     <use xlink:href="#m1536953a2b" x="223.121901" y="109.239946" style="fill: #1f77b4; stroke: #1f77b4"/>
     <use xlink:href="#m1536953a2b" x="226.004132" y="109.248536" style="fill: #1f77b4; stroke: #1f77b4"/>
     <use xlink:href="#m1536953a2b" x="228.886364" y="109.22947" style="fill: #1f77b4; stroke: #1f77b4"/>
     <use xlink:href="#m1536953a2b" x="231.768595" y="109.217585" style="fill: #1f77b4; stroke: #1f77b4"/>
     <use xlink:href="#m1536953a2b" x="234.650826" y="109.254402" style="fill: #1f77b4; stroke: #1f77b4"/>
     <use xlink:href="#m1536953a2b" x="237.533058" y="109.260493" style="fill: #1f77b4; stroke: #1f77b4"/>
     <use xlink:href="#m1536953a2b" x="240.415289" y="109.257262" style="fill: #1f77b4; stroke: #1f77b4"/>
     <use xlink:href="#m1536953a2b" x="243.297521" y="109.237045" style="fill: #1f77b4; stroke: #1f77b4"/>
     <use xlink:href="#m1536953a2b" x="246.179752" y="109.271492" style="fill: #1f77b4; stroke: #1f77b4"/>
     <use xlink:href="#m1536953a2b" x="249.061983" y="109.240821" style="fill: #1f77b4; stroke: #1f77b4"/>
     <use xlink:href="#m1536953a2b" x="251.944215" y="109.078188" style="fill: #1f77b4; stroke: #1f77b4"/>
     <use xlink:href="#m1536953a2b" x="254.826446" y="106.614059" style="fill: #1f77b4; stroke: #1f77b4"/>
     <use xlink:href="#m1536953a2b" x="257.708678" y="53.22346" style="fill: #1f77b4; stroke: #1f77b4"/>
     <use xlink:href="#m1536953a2b" x="260.590909" y="22.32" style="fill: #1f77b4; stroke: #1f77b4"/>
     <use xlink:href="#m1536953a2b" x="263.47314" y="70.538992" style="fill: #1f77b4; stroke: #1f77b4"/>
     <use xlink:href="#m1536953a2b" x="266.355372" y="109.27567" style="fill: #1f77b4; stroke: #1f77b4"/>
     <use xlink:href="#m1536953a2b" x="269.237603" y="109.023371" style="fill: #1f77b4; stroke: #1f77b4"/>
     <use xlink:href="#m1536953a2b" x="272.119835" y="109.270763" style="fill: #1f77b4; stroke: #1f77b4"/>
     <use xlink:href="#m1536953a2b" x="275.002066" y="109.265225" style="fill: #1f77b4; stroke: #1f77b4"/>
     <use xlink:href="#m1536953a2b" x="277.884298" y="109.282752" style="fill: #1f77b4; stroke: #1f77b4"/>
     <use xlink:href="#m1536953a2b" x="280.766529" y="109.280381" style="fill: #1f77b4; stroke: #1f77b4"/>
     <use xlink:href="#m1536953a2b" x="283.64876" y="109.278391" style="fill: #1f77b4; stroke: #1f77b4"/>
     <use xlink:href="#m1536953a2b" x="286.530992" y="109.28489" style="fill: #1f77b4; stroke: #1f77b4"/>
     <use xlink:href="#m1536953a2b" x="289.413223" y="109.282562" style="fill: #1f77b4; stroke: #1f77b4"/>
     <use xlink:href="#m1536953a2b" x="292.295455" y="109.277624" style="fill: #1f77b4; stroke: #1f77b4"/>
     <use xlink:href="#m1536953a2b" x="295.177686" y="109.262219" style="fill: #1f77b4; stroke: #1f77b4"/>
     <use xlink:href="#m1536953a2b" x="298.059917" y="109.263351" style="fill: #1f77b4; stroke: #1f77b4"/>
     <use xlink:href="#m1536953a2b" x="300.942149" y="109.27128" style="fill: #1f77b4; stroke: #1f77b4"/>
     <use xlink:href="#m1536953a2b" x="303.82438" y="109.249562" style="fill: #1f77b4; stroke: #1f77b4"/>
     <use xlink:href="#m1536953a2b" x="306.706612" y="109.245455" style="fill: #1f77b4; stroke: #1f77b4"/>
     <use xlink:href="#m1536953a2b" x="309.588843" y="109.270967" style="fill: #1f77b4; stroke: #1f77b4"/>
     <use xlink:href="#m1536953a2b" x="312.471074" y="109.238632" style="fill: #1f77b4; stroke: #1f77b4"/>
     <use xlink:href="#m1536953a2b" x="315.353306" y="109.219392" style="fill: #1f77b4; stroke: #1f77b4"/>
     <use xlink:href="#m1536953a2b" x="318.235537" y="109.190242" style="fill: #1f77b4; stroke: #1f77b4"/>
    </g>
   </g>
   <g id="line2d_18">
    <path d="M 202.946281 123.12 
L 318.235537 123.12 
" clip-path="url(#p574135d9ac)" style="fill: none; stroke: #1f77b4; stroke-width: 0.5; stroke-linecap: square"/>
   </g>
   <g id="patch_8">
    <path d="M 197.181818 128.16 
L 197.181818 17.28 
" style="fill: none; stroke: #000000; stroke-width: 0.8; stroke-linejoin: miter; stroke-linecap: square"/>
   </g>
   <g id="patch_9">
    <path d="M 324 128.16 
L 324 17.28 
" style="fill: none; stroke: #000000; stroke-width: 0.8; stroke-linejoin: miter; stroke-linecap: square"/>
   </g>
   <g id="patch_10">
    <path d="M 197.181818 128.16 
L 324 128.16 
" style="fill: none; stroke: #000000; stroke-width: 0.8; stroke-linejoin: miter; stroke-linecap: square"/>
   </g>
   <g id="patch_11">
    <path d="M 197.181818 17.28 
L 324 17.28 
" style="fill: none; stroke: #000000; stroke-width: 0.8; stroke-linejoin: miter; stroke-linecap: square"/>
   </g>
   <g id="text_12">
    <!-- backward attention score -->
    <g transform="translate(184.275597 11.28)scale(0.12 -0.12)">
     <defs>
      <path id="DejaVuSans-62" d="M 3116 1747 
Q 3116 2381 2855 2742 
Q 2594 3103 2138 3103 
Q 1681 3103 1420 2742 
Q 1159 2381 1159 1747 
Q 1159 1113 1420 752 
Q 1681 391 2138 391 
Q 2594 391 2855 752 
Q 3116 1113 3116 1747 
z
M 1159 2969 
Q 1341 3281 1617 3432 
Q 1894 3584 2278 3584 
Q 2916 3584 3314 3078 
Q 3713 2572 3713 1747 
Q 3713 922 3314 415 
Q 2916 -91 2278 -91 
Q 1894 -91 1617 61 
Q 1341 213 1159 525 
L 1159 0 
L 581 0 
L 581 4863 
L 1159 4863 
L 1159 2969 
z
" transform="scale(0.015625)"/>
      <path id="DejaVuSans-6b" d="M 581 4863 
L 1159 4863 
L 1159 1991 
L 2875 3500 
L 3609 3500 
L 1753 1863 
L 3688 0 
L 2938 0 
L 1159 1709 
L 1159 0 
L 581 0 
L 581 4863 
z
" transform="scale(0.015625)"/>
     </defs>
     <use xlink:href="#DejaVuSans-62"/>
     <use xlink:href="#DejaVuSans-61" x="63.476562"/>
     <use xlink:href="#DejaVuSans-63" x="124.755859"/>
     <use xlink:href="#DejaVuSans-6b" x="179.736328"/>
     <use xlink:href="#DejaVuSans-77" x="237.646484"/>
     <use xlink:href="#DejaVuSans-61" x="319.433594"/>
     <use xlink:href="#DejaVuSans-72" x="380.712891"/>
     <use xlink:href="#DejaVuSans-64" x="420.076172"/>
     <use xlink:href="#DejaVuSans-20" x="483.552734"/>
     <use xlink:href="#DejaVuSans-61" x="515.339844"/>
     <use xlink:href="#DejaVuSans-74" x="576.619141"/>
     <use xlink:href="#DejaVuSans-74" x="615.828125"/>
     <use xlink:href="#DejaVuSans-65" x="655.037109"/>
     <use xlink:href="#DejaVuSans-6e" x="716.560547"/>
     <use xlink:href="#DejaVuSans-74" x="779.939453"/>
     <use xlink:href="#DejaVuSans-69" x="819.148438"/>
     <use xlink:href="#DejaVuSans-6f" x="846.931641"/>
     <use xlink:href="#DejaVuSans-6e" x="908.113281"/>
     <use xlink:href="#DejaVuSans-20" x="971.492188"/>
     <use xlink:href="#DejaVuSans-73" x="1003.279297"/>
     <use xlink:href="#DejaVuSans-63" x="1055.378906"/>
     <use xlink:href="#DejaVuSans-6f" x="1110.359375"/>
     <use xlink:href="#DejaVuSans-72" x="1171.541016"/>
     <use xlink:href="#DejaVuSans-65" x="1210.404297"/>
    </g>
   </g>
  </g>
 </g>
 <defs>
  <clipPath id="p4dbab30b72">
   <rect x="45" y="17.28" width="126.818182" height="110.88"/>
  </clipPath>
  <clipPath id="p574135d9ac">
   <rect x="197.181818" y="17.28" width="126.818182" height="110.88"/>
  </clipPath>
 </defs>
</svg>
