<?xml version="1.0" encoding="utf-8" standalone="no"?>
<!DOCTYPE svg PUBLIC "-//W3C//DTD SVG 1.1//EN"
  "http://www.w3.org/Graphics/SVG/1.1/DTD/svg11.dtd">
<svg xmlns:xlink="http://www.w3.org/1999/xlink" width="360pt" height="144pt" viewBox="0 0 360 144" xmlns="http://www.w3.org/2000/svg" version="1.1">
 <metadata>
  <rdf:RDF xmlns:dc="http://purl.org/dc/elements/1.1/" xmlns:cc="http://creativecommons.org/ns#" xmlns:rdf="http://www.w3.org/1999/02/22-rdf-syntax-ns#">
   <cc:Work>
    <dc:type rdf:resource="http://purl.org/dc/dcmitype/StillImage"/>
    <dc:date>2022-04-21T16:24:49.512536</dc:date>
    <dc:format>image/svg+xml</dc:format>
    <dc:creator>
     <cc:Agent>
      <dc:title>Matplotlib v3.5.0, https://matplotlib.org/</dc:title>
     </cc:Agent>
    </dc:creator>
   </cc:Work>
  </rdf:RDF>
 </metadata>
 <defs>
  <style type="text/css">*{stroke-linejoin: round; stroke-linecap: butt}</style>
 </defs>
 <g id="figure_1">
  <g id="patch_1">
   <path d="M 0 144 
L 360 144 
L 360 0 
L 0 0 
z
" style="fill: #ffffff"/>
  </g>
  <g id="axes_1">
   <g id="patch_2">
    <path d="M 45 67.68 
L 324 67.68 
L 324 17.28 
L 45 17.28 
z
" style="fill: #ffffff"/>
   </g>
   <g id="matplotlib.axis_1">
    <g id="xtick_1">
     <g id="line2d_1">
      <defs>
       <path id="m4599f00fc7" d="M 0 0 
L 0 3.5 
" style="stroke: #000000; stroke-width: 0.8"/>
      </defs>
      <g>
       <use xlink:href="#m4599f00fc7" x="57.681818" y="67.68" style="stroke: #000000; stroke-width: 0.8"/>
      </g>
     </g>
    </g>
    <g id="xtick_2">
     <g id="line2d_2">
      <g>
       <use xlink:href="#m4599f00fc7" x="89.386364" y="67.68" style="stroke: #000000; stroke-width: 0.8"/>
      </g>
     </g>
    </g>
    <g id="xtick_3">
     <g id="line2d_3">
      <g>
       <use xlink:href="#m4599f00fc7" x="121.090909" y="67.68" style="stroke: #000000; stroke-width: 0.8"/>
      </g>
     </g>
    </g>
    <g id="xtick_4">
     <g id="line2d_4">
      <g>
       <use xlink:href="#m4599f00fc7" x="152.795455" y="67.68" style="stroke: #000000; stroke-width: 0.8"/>
      </g>
     </g>
    </g>
    <g id="xtick_5">
     <g id="line2d_5">
      <g>
       <use xlink:href="#m4599f00fc7" x="184.5" y="67.68" style="stroke: #000000; stroke-width: 0.8"/>
      </g>
     </g>
    </g>
    <g id="xtick_6">
     <g id="line2d_6">
      <g>
       <use xlink:href="#m4599f00fc7" x="216.204545" y="67.68" style="stroke: #000000; stroke-width: 0.8"/>
      </g>
     </g>
    </g>
    <g id="xtick_7">
     <g id="line2d_7">
      <g>
       <use xlink:href="#m4599f00fc7" x="247.909091" y="67.68" style="stroke: #000000; stroke-width: 0.8"/>
      </g>
     </g>
    </g>
    <g id="xtick_8">
     <g id="line2d_8">
      <g>
       <use xlink:href="#m4599f00fc7" x="279.613636" y="67.68" style="stroke: #000000; stroke-width: 0.8"/>
      </g>
     </g>
    </g>
    <g id="xtick_9">
     <g id="line2d_9">
      <g>
       <use xlink:href="#m4599f00fc7" x="311.318182" y="67.68" style="stroke: #000000; stroke-width: 0.8"/>
      </g>
     </g>
    </g>
   </g>
   <g id="matplotlib.axis_2">
    <g id="ytick_1">
     <g id="line2d_10">
      <defs>
       <path id="m50b4988964" d="M 0 0 
L -3.5 0 
" style="stroke: #000000; stroke-width: 0.8"/>
      </defs>
      <g>
       <use xlink:href="#m50b4988964" x="45" y="65.389091" style="stroke: #000000; stroke-width: 0.8"/>
      </g>
     </g>
     <g id="text_1">
      <!-- 0.00 -->
      <g transform="translate(15.734375 69.18831)scale(0.1 -0.1)">
       <defs>
        <path id="DejaVuSans-30" d="M 2034 4250 
Q 1547 4250 1301 3770 
Q 1056 3291 1056 2328 
Q 1056 1369 1301 889 
Q 1547 409 2034 409 
Q 2525 409 2770 889 
Q 3016 1369 3016 2328 
Q 3016 3291 2770 3770 
Q 2525 4250 2034 4250 
z
M 2034 4750 
Q 2819 4750 3233 4129 
Q 3647 3509 3647 2328 
Q 3647 1150 3233 529 
Q 2819 -91 2034 -91 
Q 1250 -91 836 529 
Q 422 1150 422 2328 
Q 422 3509 836 4129 
Q 1250 4750 2034 4750 
z
" transform="scale(0.015625)"/>
        <path id="DejaVuSans-2e" d="M 684 794 
L 1344 794 
L 1344 0 
L 684 0 
L 684 794 
z
" transform="scale(0.015625)"/>
       </defs>
       <use xlink:href="#DejaVuSans-30"/>
       <use xlink:href="#DejaVuSans-2e" x="63.623047"/>
       <use xlink:href="#DejaVuSans-30" x="95.410156"/>
       <use xlink:href="#DejaVuSans-30" x="159.033203"/>
      </g>
     </g>
    </g>
    <g id="ytick_2">
     <g id="line2d_11">
      <g>
       <use xlink:href="#m50b4988964" x="45" y="31.858153" style="stroke: #000000; stroke-width: 0.8"/>
      </g>
     </g>
     <g id="text_2">
      <!-- 0.05 -->
      <g transform="translate(15.734375 35.657372)scale(0.1 -0.1)">
       <defs>
        <path id="DejaVuSans-35" d="M 691 4666 
L 3169 4666 
L 3169 4134 
L 1269 4134 
L 1269 2991 
Q 1406 3038 1543 3061 
Q 1681 3084 1819 3084 
Q 2600 3084 3056 2656 
Q 3513 2228 3513 1497 
Q 3513 744 3044 326 
Q 2575 -91 1722 -91 
Q 1428 -91 1123 -41 
Q 819 9 494 109 
L 494 744 
Q 775 591 1075 516 
Q 1375 441 1709 441 
Q 2250 441 2565 725 
Q 2881 1009 2881 1497 
Q 2881 1984 2565 2268 
Q 2250 2553 1709 2553 
Q 1456 2553 1204 2497 
Q 953 2441 691 2322 
L 691 4666 
z
" transform="scale(0.015625)"/>
       </defs>
       <use xlink:href="#DejaVuSans-30"/>
       <use xlink:href="#DejaVuSans-2e" x="63.623047"/>
       <use xlink:href="#DejaVuSans-30" x="95.410156"/>
       <use xlink:href="#DejaVuSans-35" x="159.033203"/>
      </g>
     </g>
    </g>
   </g>
   <g id="LineCollection_1">
    <path d="M 57.681818 65.389091 
L 57.681818 59.07556 
" clip-path="url(#p0d12e2421c)" style="fill: none; stroke: #1f77b4; stroke-width: 1.5"/>
    <path d="M 64.022727 65.389091 
L 64.022727 59.082856 
" clip-path="url(#p0d12e2421c)" style="fill: none; stroke: #1f77b4; stroke-width: 1.5"/>
    <path d="M 70.363636 65.389091 
L 70.363636 59.091449 
" clip-path="url(#p0d12e2421c)" style="fill: none; stroke: #1f77b4; stroke-width: 1.5"/>
    <path d="M 76.704545 65.389091 
L 76.704545 59.094607 
" clip-path="url(#p0d12e2421c)" style="fill: none; stroke: #1f77b4; stroke-width: 1.5"/>
    <path d="M 83.045455 65.389091 
L 83.045455 59.09495 
" clip-path="url(#p0d12e2421c)" style="fill: none; stroke: #1f77b4; stroke-width: 1.5"/>
    <path d="M 89.386364 65.389091 
L 89.386364 59.093965 
" clip-path="url(#p0d12e2421c)" style="fill: none; stroke: #1f77b4; stroke-width: 1.5"/>
    <path d="M 95.727273 65.389091 
L 95.727273 59.094243 
" clip-path="url(#p0d12e2421c)" style="fill: none; stroke: #1f77b4; stroke-width: 1.5"/>
    <path d="M 102.068182 65.389091 
L 102.068182 59.097905 
" clip-path="url(#p0d12e2421c)" style="fill: none; stroke: #1f77b4; stroke-width: 1.5"/>
    <path d="M 108.409091 65.389091 
L 108.409091 59.099768 
" clip-path="url(#p0d12e2421c)" style="fill: none; stroke: #1f77b4; stroke-width: 1.5"/>
    <path d="M 114.75 65.389091 
L 114.75 59.099026 
" clip-path="url(#p0d12e2421c)" style="fill: none; stroke: #1f77b4; stroke-width: 1.5"/>
    <path d="M 121.090909 65.389091 
L 121.090909 59.099066 
" clip-path="url(#p0d12e2421c)" style="fill: none; stroke: #1f77b4; stroke-width: 1.5"/>
    <path d="M 127.431818 65.389091 
L 127.431818 59.098982 
" clip-path="url(#p0d12e2421c)" style="fill: none; stroke: #1f77b4; stroke-width: 1.5"/>
    <path d="M 133.772727 65.389091 
L 133.772727 59.097922 
" clip-path="url(#p0d12e2421c)" style="fill: none; stroke: #1f77b4; stroke-width: 1.5"/>
    <path d="M 140.113636 65.389091 
L 140.113636 59.098704 
" clip-path="url(#p0d12e2421c)" style="fill: none; stroke: #1f77b4; stroke-width: 1.5"/>
    <path d="M 146.454545 65.389091 
L 146.454545 59.099453 
" clip-path="url(#p0d12e2421c)" style="fill: none; stroke: #1f77b4; stroke-width: 1.5"/>
    <path d="M 152.795455 65.389091 
L 152.795455 59.097695 
" clip-path="url(#p0d12e2421c)" style="fill: none; stroke: #1f77b4; stroke-width: 1.5"/>
    <path d="M 159.136364 65.389091 
L 159.136364 59.100359 
" clip-path="url(#p0d12e2421c)" style="fill: none; stroke: #1f77b4; stroke-width: 1.5"/>
    <path d="M 165.477273 65.389091 
L 165.477273 59.100273 
" clip-path="url(#p0d12e2421c)" style="fill: none; stroke: #1f77b4; stroke-width: 1.5"/>
    <path d="M 171.818182 65.389091 
L 171.818182 59.097109 
" clip-path="url(#p0d12e2421c)" style="fill: none; stroke: #1f77b4; stroke-width: 1.5"/>
    <path d="M 178.159091 65.389091 
L 178.159091 49.053162 
" clip-path="url(#p0d12e2421c)" style="fill: none; stroke: #1f77b4; stroke-width: 1.5"/>
    <path d="M 184.5 65.389091 
L 184.5 19.570909 
" clip-path="url(#p0d12e2421c)" style="fill: none; stroke: #1f77b4; stroke-width: 1.5"/>
    <path d="M 190.840909 65.389091 
L 190.840909 40.681872 
" clip-path="url(#p0d12e2421c)" style="fill: none; stroke: #1f77b4; stroke-width: 1.5"/>
    <path d="M 197.181818 65.389091 
L 197.181818 59.099804 
" clip-path="url(#p0d12e2421c)" style="fill: none; stroke: #1f77b4; stroke-width: 1.5"/>
    <path d="M 203.522727 65.389091 
L 203.522727 57.651169 
" clip-path="url(#p0d12e2421c)" style="fill: none; stroke: #1f77b4; stroke-width: 1.5"/>
    <path d="M 209.863636 65.389091 
L 209.863636 59.098971 
" clip-path="url(#p0d12e2421c)" style="fill: none; stroke: #1f77b4; stroke-width: 1.5"/>
    <path d="M 216.204545 65.389091 
L 216.204545 59.082315 
" clip-path="url(#p0d12e2421c)" style="fill: none; stroke: #1f77b4; stroke-width: 1.5"/>
    <path d="M 222.545455 65.389091 
L 222.545455 59.091706 
" clip-path="url(#p0d12e2421c)" style="fill: none; stroke: #1f77b4; stroke-width: 1.5"/>
    <path d="M 228.886364 65.389091 
L 228.886364 59.080749 
" clip-path="url(#p0d12e2421c)" style="fill: none; stroke: #1f77b4; stroke-width: 1.5"/>
    <path d="M 235.227273 65.389091 
L 235.227273 59.080535 
" clip-path="url(#p0d12e2421c)" style="fill: none; stroke: #1f77b4; stroke-width: 1.5"/>
    <path d="M 241.568182 65.389091 
L 241.568182 59.079976 
" clip-path="url(#p0d12e2421c)" style="fill: none; stroke: #1f77b4; stroke-width: 1.5"/>
    <path d="M 247.909091 65.389091 
L 247.909091 59.075887 
" clip-path="url(#p0d12e2421c)" style="fill: none; stroke: #1f77b4; stroke-width: 1.5"/>
    <path d="M 254.25 65.389091 
L 254.25 59.069629 
" clip-path="url(#p0d12e2421c)" style="fill: none; stroke: #1f77b4; stroke-width: 1.5"/>
    <path d="M 260.590909 65.389091 
L 260.590909 59.069225 
" clip-path="url(#p0d12e2421c)" style="fill: none; stroke: #1f77b4; stroke-width: 1.5"/>
    <path d="M 266.931818 65.389091 
L 266.931818 59.063823 
" clip-path="url(#p0d12e2421c)" style="fill: none; stroke: #1f77b4; stroke-width: 1.5"/>
    <path d="M 273.272727 65.389091 
L 273.272727 59.036345 
" clip-path="url(#p0d12e2421c)" style="fill: none; stroke: #1f77b4; stroke-width: 1.5"/>
    <path d="M 279.613636 65.389091 
L 279.613636 59.055905 
" clip-path="url(#p0d12e2421c)" style="fill: none; stroke: #1f77b4; stroke-width: 1.5"/>
    <path d="M 285.954545 65.389091 
L 285.954545 59.070379 
" clip-path="url(#p0d12e2421c)" style="fill: none; stroke: #1f77b4; stroke-width: 1.5"/>
    <path d="M 292.295455 65.389091 
L 292.295455 59.069172 
" clip-path="url(#p0d12e2421c)" style="fill: none; stroke: #1f77b4; stroke-width: 1.5"/>
    <path d="M 298.636364 65.389091 
L 298.636364 59.047243 
" clip-path="url(#p0d12e2421c)" style="fill: none; stroke: #1f77b4; stroke-width: 1.5"/>
    <path d="M 304.977273 65.389091 
L 304.977273 59.028444 
" clip-path="url(#p0d12e2421c)" style="fill: none; stroke: #1f77b4; stroke-width: 1.5"/>
    <path d="M 311.318182 65.389091 
L 311.318182 59.03984 
" clip-path="url(#p0d12e2421c)" style="fill: none; stroke: #1f77b4; stroke-width: 1.5"/>
   </g>
   <g id="line2d_12">
    <defs>
     <path id="m56a956707e" d="M 0 1 
C 0.265203 1 0.51958 0.894634 0.707107 0.707107 
C 0.894634 0.51958 1 0.265203 1 0 
C 1 -0.265203 0.894634 -0.51958 0.707107 -0.707107 
C 0.51958 -0.894634 0.265203 -1 0 -1 
C -0.265203 -1 -0.51958 -0.894634 -0.707107 -0.707107 
C -0.894634 -0.51958 -1 -0.265203 -1 0 
C -1 0.265203 -0.894634 0.51958 -0.707107 0.707107 
C -0.51958 0.894634 -0.265203 1 0 1 
z
" style="stroke: #1f77b4"/>
    </defs>
    <g clip-path="url(#p0d12e2421c)">
     <use xlink:href="#m56a956707e" x="57.681818" y="59.07556" style="fill: #1f77b4; stroke: #1f77b4"/>
     <use xlink:href="#m56a956707e" x="64.022727" y="59.082856" style="fill: #1f77b4; stroke: #1f77b4"/>
     <use xlink:href="#m56a956707e" x="70.363636" y="59.091449" style="fill: #1f77b4; stroke: #1f77b4"/>
     <use xlink:href="#m56a956707e" x="76.704545" y="59.094607" style="fill: #1f77b4; stroke: #1f77b4"/>
     <use xlink:href="#m56a956707e" x="83.045455" y="59.09495" style="fill: #1f77b4; stroke: #1f77b4"/>
     <use xlink:href="#m56a956707e" x="89.386364" y="59.093965" style="fill: #1f77b4; stroke: #1f77b4"/>
     <use xlink:href="#m56a956707e" x="95.727273" y="59.094243" style="fill: #1f77b4; stroke: #1f77b4"/>
     <use xlink:href="#m56a956707e" x="102.068182" y="59.097905" style="fill: #1f77b4; stroke: #1f77b4"/>
     <use xlink:href="#m56a956707e" x="108.409091" y="59.099768" style="fill: #1f77b4; stroke: #1f77b4"/>
     <use xlink:href="#m56a956707e" x="114.75" y="59.099026" style="fill: #1f77b4; stroke: #1f77b4"/>
     <use xlink:href="#m56a956707e" x="121.090909" y="59.099066" style="fill: #1f77b4; stroke: #1f77b4"/>
     <use xlink:href="#m56a956707e" x="127.431818" y="59.098982" style="fill: #1f77b4; stroke: #1f77b4"/>
     <use xlink:href="#m56a956707e" x="133.772727" y="59.097922" style="fill: #1f77b4; stroke: #1f77b4"/>
     <use xlink:href="#m56a956707e" x="140.113636" y="59.098704" style="fill: #1f77b4; stroke: #1f77b4"/>
     <use xlink:href="#m56a956707e" x="146.454545" y="59.099453" style="fill: #1f77b4; stroke: #1f77b4"/>
     <use xlink:href="#m56a956707e" x="152.795455" y="59.097695" style="fill: #1f77b4; stroke: #1f77b4"/>
     <use xlink:href="#m56a956707e" x="159.136364" y="59.100359" style="fill: #1f77b4; stroke: #1f77b4"/>
     <use xlink:href="#m56a956707e" x="165.477273" y="59.100273" style="fill: #1f77b4; stroke: #1f77b4"/>
     <use xlink:href="#m56a956707e" x="171.818182" y="59.097109" style="fill: #1f77b4; stroke: #1f77b4"/>
     <use xlink:href="#m56a956707e" x="178.159091" y="49.053162" style="fill: #1f77b4; stroke: #1f77b4"/>
     <use xlink:href="#m56a956707e" x="184.5" y="19.570909" style="fill: #1f77b4; stroke: #1f77b4"/>
     <use xlink:href="#m56a956707e" x="190.840909" y="40.681872" style="fill: #1f77b4; stroke: #1f77b4"/>
     <use xlink:href="#m56a956707e" x="197.181818" y="59.099804" style="fill: #1f77b4; stroke: #1f77b4"/>
     <use xlink:href="#m56a956707e" x="203.522727" y="57.651169" style="fill: #1f77b4; stroke: #1f77b4"/>
     <use xlink:href="#m56a956707e" x="209.863636" y="59.098971" style="fill: #1f77b4; stroke: #1f77b4"/>
     <use xlink:href="#m56a956707e" x="216.204545" y="59.082315" style="fill: #1f77b4; stroke: #1f77b4"/>
     <use xlink:href="#m56a956707e" x="222.545455" y="59.091706" style="fill: #1f77b4; stroke: #1f77b4"/>
     <use xlink:href="#m56a956707e" x="228.886364" y="59.080749" style="fill: #1f77b4; stroke: #1f77b4"/>
     <use xlink:href="#m56a956707e" x="235.227273" y="59.080535" style="fill: #1f77b4; stroke: #1f77b4"/>
     <use xlink:href="#m56a956707e" x="241.568182" y="59.079976" style="fill: #1f77b4; stroke: #1f77b4"/>
     <use xlink:href="#m56a956707e" x="247.909091" y="59.075887" style="fill: #1f77b4; stroke: #1f77b4"/>
     <use xlink:href="#m56a956707e" x="254.25" y="59.069629" style="fill: #1f77b4; stroke: #1f77b4"/>
     <use xlink:href="#m56a956707e" x="260.590909" y="59.069225" style="fill: #1f77b4; stroke: #1f77b4"/>
     <use xlink:href="#m56a956707e" x="266.931818" y="59.063823" style="fill: #1f77b4; stroke: #1f77b4"/>
     <use xlink:href="#m56a956707e" x="273.272727" y="59.036345" style="fill: #1f77b4; stroke: #1f77b4"/>
     <use xlink:href="#m56a956707e" x="279.613636" y="59.055905" style="fill: #1f77b4; stroke: #1f77b4"/>
     <use xlink:href="#m56a956707e" x="285.954545" y="59.070379" style="fill: #1f77b4; stroke: #1f77b4"/>
     <use xlink:href="#m56a956707e" x="292.295455" y="59.069172" style="fill: #1f77b4; stroke: #1f77b4"/>
     <use xlink:href="#m56a956707e" x="298.636364" y="59.047243" style="fill: #1f77b4; stroke: #1f77b4"/>
     <use xlink:href="#m56a956707e" x="304.977273" y="59.028444" style="fill: #1f77b4; stroke: #1f77b4"/>
     <use xlink:href="#m56a956707e" x="311.318182" y="59.03984" style="fill: #1f77b4; stroke: #1f77b4"/>
    </g>
   </g>
   <g id="line2d_13">
    <path d="M 57.681818 65.389091 
L 311.318182 65.389091 
" clip-path="url(#p0d12e2421c)" style="fill: none; stroke: #1f77b4; stroke-width: 0.5; stroke-linecap: square"/>
   </g>
   <g id="patch_3">
    <path d="M 45 67.68 
L 45 17.28 
" style="fill: none; stroke: #000000; stroke-width: 0.8; stroke-linejoin: miter; stroke-linecap: square"/>
   </g>
   <g id="patch_4">
    <path d="M 324 67.68 
L 324 17.28 
" style="fill: none; stroke: #000000; stroke-width: 0.8; stroke-linejoin: miter; stroke-linecap: square"/>
   </g>
   <g id="patch_5">
    <path d="M 45 67.68 
L 324 67.68 
" style="fill: none; stroke: #000000; stroke-width: 0.8; stroke-linejoin: miter; stroke-linecap: square"/>
   </g>
   <g id="patch_6">
    <path d="M 45 17.28 
L 324 17.28 
" style="fill: none; stroke: #000000; stroke-width: 0.8; stroke-linejoin: miter; stroke-linecap: square"/>
   </g>
   <g id="text_3">
    <!-- forward &amp; backward attention score -->
    <g transform="translate(76.6875 11.28)scale(0.12 -0.12)">
     <defs>
      <path id="DejaVuSans-66" d="M 2375 4863 
L 2375 4384 
L 1825 4384 
Q 1516 4384 1395 4259 
Q 1275 4134 1275 3809 
L 1275 3500 
L 2222 3500 
L 2222 3053 
L 1275 3053 
L 1275 0 
L 697 0 
L 697 3053 
L 147 3053 
L 147 3500 
L 697 3500 
L 697 3744 
Q 697 4328 969 4595 
Q 1241 4863 1831 4863 
L 2375 4863 
z
" transform="scale(0.015625)"/>
      <path id="DejaVuSans-6f" d="M 1959 3097 
Q 1497 3097 1228 2736 
Q 959 2375 959 1747 
Q 959 1119 1226 758 
Q 1494 397 1959 397 
Q 2419 397 2687 759 
Q 2956 1122 2956 1747 
Q 2956 2369 2687 2733 
Q 2419 3097 1959 3097 
z
M 1959 3584 
Q 2709 3584 3137 3096 
Q 3566 2609 3566 1747 
Q 3566 888 3137 398 
Q 2709 -91 1959 -91 
Q 1206 -91 779 398 
Q 353 888 353 1747 
Q 353 2609 779 3096 
Q 1206 3584 1959 3584 
z
" transform="scale(0.015625)"/>
      <path id="DejaVuSans-72" d="M 2631 2963 
Q 2534 3019 2420 3045 
Q 2306 3072 2169 3072 
Q 1681 3072 1420 2755 
Q 1159 2438 1159 1844 
L 1159 0 
L 581 0 
L 581 3500 
L 1159 3500 
L 1159 2956 
Q 1341 3275 1631 3429 
Q 1922 3584 2338 3584 
Q 2397 3584 2469 3576 
Q 2541 3569 2628 3553 
L 2631 2963 
z
" transform="scale(0.015625)"/>
      <path id="DejaVuSans-77" d="M 269 3500 
L 844 3500 
L 1563 769 
L 2278 3500 
L 2956 3500 
L 3675 769 
L 4391 3500 
L 4966 3500 
L 4050 0 
L 3372 0 
L 2619 2869 
L 1863 0 
L 1184 0 
L 269 3500 
z
" transform="scale(0.015625)"/>
      <path id="DejaVuSans-61" d="M 2194 1759 
Q 1497 1759 1228 1600 
Q 959 1441 959 1056 
Q 959 750 1161 570 
Q 1363 391 1709 391 
Q 2188 391 2477 730 
Q 2766 1069 2766 1631 
L 2766 1759 
L 2194 1759 
z
M 3341 1997 
L 3341 0 
L 2766 0 
L 2766 531 
Q 2569 213 2275 61 
Q 1981 -91 1556 -91 
Q 1019 -91 701 211 
Q 384 513 384 1019 
Q 384 1609 779 1909 
Q 1175 2209 1959 2209 
L 2766 2209 
L 2766 2266 
Q 2766 2663 2505 2880 
Q 2244 3097 1772 3097 
Q 1472 3097 1187 3025 
Q 903 2953 641 2809 
L 641 3341 
Q 956 3463 1253 3523 
Q 1550 3584 1831 3584 
Q 2591 3584 2966 3190 
Q 3341 2797 3341 1997 
z
" transform="scale(0.015625)"/>
      <path id="DejaVuSans-64" d="M 2906 2969 
L 2906 4863 
L 3481 4863 
L 3481 0 
L 2906 0 
L 2906 525 
Q 2725 213 2448 61 
Q 2172 -91 1784 -91 
Q 1150 -91 751 415 
Q 353 922 353 1747 
Q 353 2572 751 3078 
Q 1150 3584 1784 3584 
Q 2172 3584 2448 3432 
Q 2725 3281 2906 2969 
z
M 947 1747 
Q 947 1113 1208 752 
Q 1469 391 1925 391 
Q 2381 391 2643 752 
Q 2906 1113 2906 1747 
Q 2906 2381 2643 2742 
Q 2381 3103 1925 3103 
Q 1469 3103 1208 2742 
Q 947 2381 947 1747 
z
" transform="scale(0.015625)"/>
      <path id="DejaVuSans-20" transform="scale(0.015625)"/>
      <path id="DejaVuSans-26" d="M 1556 2509 
Q 1272 2256 1139 2004 
Q 1006 1753 1006 1478 
Q 1006 1022 1337 719 
Q 1669 416 2169 416 
Q 2466 416 2725 514 
Q 2984 613 3213 813 
L 1556 2509 
z
M 1997 2859 
L 3584 1234 
Q 3769 1513 3872 1830 
Q 3975 2147 3994 2503 
L 4575 2503 
Q 4538 2091 4375 1687 
Q 4213 1284 3922 891 
L 4794 0 
L 4006 0 
L 3559 459 
Q 3234 181 2878 45 
Q 2522 -91 2113 -91 
Q 1359 -91 881 339 
Q 403 769 403 1441 
Q 403 1841 612 2192 
Q 822 2544 1241 2853 
Q 1091 3050 1012 3245 
Q 934 3441 934 3628 
Q 934 4134 1281 4442 
Q 1628 4750 2203 4750 
Q 2463 4750 2720 4694 
Q 2978 4638 3244 4525 
L 3244 3956 
Q 2972 4103 2725 4179 
Q 2478 4256 2266 4256 
Q 1938 4256 1733 4082 
Q 1528 3909 1528 3634 
Q 1528 3475 1620 3314 
Q 1713 3153 1997 2859 
z
" transform="scale(0.015625)"/>
      <path id="DejaVuSans-62" d="M 3116 1747 
Q 3116 2381 2855 2742 
Q 2594 3103 2138 3103 
Q 1681 3103 1420 2742 
Q 1159 2381 1159 1747 
Q 1159 1113 1420 752 
Q 1681 391 2138 391 
Q 2594 391 2855 752 
Q 3116 1113 3116 1747 
z
M 1159 2969 
Q 1341 3281 1617 3432 
Q 1894 3584 2278 3584 
Q 2916 3584 3314 3078 
Q 3713 2572 3713 1747 
Q 3713 922 3314 415 
Q 2916 -91 2278 -91 
Q 1894 -91 1617 61 
Q 1341 213 1159 525 
L 1159 0 
L 581 0 
L 581 4863 
L 1159 4863 
L 1159 2969 
z
" transform="scale(0.015625)"/>
      <path id="DejaVuSans-63" d="M 3122 3366 
L 3122 2828 
Q 2878 2963 2633 3030 
Q 2388 3097 2138 3097 
Q 1578 3097 1268 2742 
Q 959 2388 959 1747 
Q 959 1106 1268 751 
Q 1578 397 2138 397 
Q 2388 397 2633 464 
Q 2878 531 3122 666 
L 3122 134 
Q 2881 22 2623 -34 
Q 2366 -91 2075 -91 
Q 1284 -91 818 406 
Q 353 903 353 1747 
Q 353 2603 823 3093 
Q 1294 3584 2113 3584 
Q 2378 3584 2631 3529 
Q 2884 3475 3122 3366 
z
" transform="scale(0.015625)"/>
      <path id="DejaVuSans-6b" d="M 581 4863 
L 1159 4863 
L 1159 1991 
L 2875 3500 
L 3609 3500 
L 1753 1863 
L 3688 0 
L 2938 0 
L 1159 1709 
L 1159 0 
L 581 0 
L 581 4863 
z
" transform="scale(0.015625)"/>
      <path id="DejaVuSans-74" d="M 1172 4494 
L 1172 3500 
L 2356 3500 
L 2356 3053 
L 1172 3053 
L 1172 1153 
Q 1172 725 1289 603 
Q 1406 481 1766 481 
L 2356 481 
L 2356 0 
L 1766 0 
Q 1100 0 847 248 
Q 594 497 594 1153 
L 594 3053 
L 172 3053 
L 172 3500 
L 594 3500 
L 594 4494 
L 1172 4494 
z
" transform="scale(0.015625)"/>
      <path id="DejaVuSans-65" d="M 3597 1894 
L 3597 1613 
L 953 1613 
Q 991 1019 1311 708 
Q 1631 397 2203 397 
Q 2534 397 2845 478 
Q 3156 559 3463 722 
L 3463 178 
Q 3153 47 2828 -22 
Q 2503 -91 2169 -91 
Q 1331 -91 842 396 
Q 353 884 353 1716 
Q 353 2575 817 3079 
Q 1281 3584 2069 3584 
Q 2775 3584 3186 3129 
Q 3597 2675 3597 1894 
z
M 3022 2063 
Q 3016 2534 2758 2815 
Q 2500 3097 2075 3097 
Q 1594 3097 1305 2825 
Q 1016 2553 972 2059 
L 3022 2063 
z
" transform="scale(0.015625)"/>
      <path id="DejaVuSans-6e" d="M 3513 2113 
L 3513 0 
L 2938 0 
L 2938 2094 
Q 2938 2591 2744 2837 
Q 2550 3084 2163 3084 
Q 1697 3084 1428 2787 
Q 1159 2491 1159 1978 
L 1159 0 
L 581 0 
L 581 3500 
L 1159 3500 
L 1159 2956 
Q 1366 3272 1645 3428 
Q 1925 3584 2291 3584 
Q 2894 3584 3203 3211 
Q 3513 2838 3513 2113 
z
" transform="scale(0.015625)"/>
      <path id="DejaVuSans-69" d="M 603 3500 
L 1178 3500 
L 1178 0 
L 603 0 
L 603 3500 
z
M 603 4863 
L 1178 4863 
L 1178 4134 
L 603 4134 
L 603 4863 
z
" transform="scale(0.015625)"/>
      <path id="DejaVuSans-73" d="M 2834 3397 
L 2834 2853 
Q 2591 2978 2328 3040 
Q 2066 3103 1784 3103 
Q 1356 3103 1142 2972 
Q 928 2841 928 2578 
Q 928 2378 1081 2264 
Q 1234 2150 1697 2047 
L 1894 2003 
Q 2506 1872 2764 1633 
Q 3022 1394 3022 966 
Q 3022 478 2636 193 
Q 2250 -91 1575 -91 
Q 1294 -91 989 -36 
Q 684 19 347 128 
L 347 722 
Q 666 556 975 473 
Q 1284 391 1588 391 
Q 1994 391 2212 530 
Q 2431 669 2431 922 
Q 2431 1156 2273 1281 
Q 2116 1406 1581 1522 
L 1381 1569 
Q 847 1681 609 1914 
Q 372 2147 372 2553 
Q 372 3047 722 3315 
Q 1072 3584 1716 3584 
Q 2034 3584 2315 3537 
Q 2597 3491 2834 3397 
z
" transform="scale(0.015625)"/>
     </defs>
     <use xlink:href="#DejaVuSans-66"/>
     <use xlink:href="#DejaVuSans-6f" x="35.205078"/>
     <use xlink:href="#DejaVuSans-72" x="96.386719"/>
     <use xlink:href="#DejaVuSans-77" x="137.5"/>
     <use xlink:href="#DejaVuSans-61" x="219.287109"/>
     <use xlink:href="#DejaVuSans-72" x="280.566406"/>
     <use xlink:href="#DejaVuSans-64" x="319.929688"/>
     <use xlink:href="#DejaVuSans-20" x="383.40625"/>
     <use xlink:href="#DejaVuSans-26" x="415.193359"/>
     <use xlink:href="#DejaVuSans-20" x="493.171875"/>
     <use xlink:href="#DejaVuSans-62" x="524.958984"/>
     <use xlink:href="#DejaVuSans-61" x="588.435547"/>
     <use xlink:href="#DejaVuSans-63" x="649.714844"/>
     <use xlink:href="#DejaVuSans-6b" x="704.695312"/>
     <use xlink:href="#DejaVuSans-77" x="762.605469"/>
     <use xlink:href="#DejaVuSans-61" x="844.392578"/>
     <use xlink:href="#DejaVuSans-72" x="905.671875"/>
     <use xlink:href="#DejaVuSans-64" x="945.035156"/>
     <use xlink:href="#DejaVuSans-20" x="1008.511719"/>
     <use xlink:href="#DejaVuSans-61" x="1040.298828"/>
     <use xlink:href="#DejaVuSans-74" x="1101.578125"/>
     <use xlink:href="#DejaVuSans-74" x="1140.787109"/>
     <use xlink:href="#DejaVuSans-65" x="1179.996094"/>
     <use xlink:href="#DejaVuSans-6e" x="1241.519531"/>
     <use xlink:href="#DejaVuSans-74" x="1304.898438"/>
     <use xlink:href="#DejaVuSans-69" x="1344.107422"/>
     <use xlink:href="#DejaVuSans-6f" x="1371.890625"/>
     <use xlink:href="#DejaVuSans-6e" x="1433.072266"/>
     <use xlink:href="#DejaVuSans-20" x="1496.451172"/>
     <use xlink:href="#DejaVuSans-73" x="1528.238281"/>
     <use xlink:href="#DejaVuSans-63" x="1580.337891"/>
     <use xlink:href="#DejaVuSans-6f" x="1635.318359"/>
     <use xlink:href="#DejaVuSans-72" x="1696.5"/>
     <use xlink:href="#DejaVuSans-65" x="1735.363281"/>
    </g>
   </g>
  </g>
  <g id="axes_2">
   <g id="patch_7">
    <path d="M 45 128.16 
L 324 128.16 
L 324 77.76 
L 45 77.76 
z
" style="fill: #ffffff"/>
   </g>
   <g id="matplotlib.axis_3">
    <g id="xtick_10">
     <g id="line2d_14">
      <g>
       <use xlink:href="#m4599f00fc7" x="57.681818" y="128.16" style="stroke: #000000; stroke-width: 0.8"/>
      </g>
     </g>
     <g id="text_4">
      <!-- −20 -->
      <g transform="translate(47.129474 142.758438)scale(0.1 -0.1)">
       <defs>
        <path id="DejaVuSans-2212" d="M 678 2272 
L 4684 2272 
L 4684 1741 
L 678 1741 
L 678 2272 
z
" transform="scale(0.015625)"/>
        <path id="DejaVuSans-32" d="M 1228 531 
L 3431 531 
L 3431 0 
L 469 0 
L 469 531 
Q 828 903 1448 1529 
Q 2069 2156 2228 2338 
Q 2531 2678 2651 2914 
Q 2772 3150 2772 3378 
Q 2772 3750 2511 3984 
Q 2250 4219 1831 4219 
Q 1534 4219 1204 4116 
Q 875 4013 500 3803 
L 500 4441 
Q 881 4594 1212 4672 
Q 1544 4750 1819 4750 
Q 2544 4750 2975 4387 
Q 3406 4025 3406 3419 
Q 3406 3131 3298 2873 
Q 3191 2616 2906 2266 
Q 2828 2175 2409 1742 
Q 1991 1309 1228 531 
z
" transform="scale(0.015625)"/>
       </defs>
       <use xlink:href="#DejaVuSans-2212"/>
       <use xlink:href="#DejaVuSans-32" x="83.789062"/>
       <use xlink:href="#DejaVuSans-30" x="147.412109"/>
      </g>
     </g>
    </g>
    <g id="xtick_11">
     <g id="line2d_15">
      <g>
       <use xlink:href="#m4599f00fc7" x="89.386364" y="128.16" style="stroke: #000000; stroke-width: 0.8"/>
      </g>
     </g>
     <g id="text_5">
      <!-- −15 -->
      <g transform="translate(78.83402 142.758438)scale(0.1 -0.1)">
       <defs>
        <path id="DejaVuSans-31" d="M 794 531 
L 1825 531 
L 1825 4091 
L 703 3866 
L 703 4441 
L 1819 4666 
L 2450 4666 
L 2450 531 
L 3481 531 
L 3481 0 
L 794 0 
L 794 531 
z
" transform="scale(0.015625)"/>
       </defs>
       <use xlink:href="#DejaVuSans-2212"/>
       <use xlink:href="#DejaVuSans-31" x="83.789062"/>
       <use xlink:href="#DejaVuSans-35" x="147.412109"/>
      </g>
     </g>
    </g>
    <g id="xtick_12">
     <g id="line2d_16">
      <g>
       <use xlink:href="#m4599f00fc7" x="121.090909" y="128.16" style="stroke: #000000; stroke-width: 0.8"/>
      </g>
     </g>
     <g id="text_6">
      <!-- −10 -->
      <g transform="translate(110.538565 142.758438)scale(0.1 -0.1)">
       <use xlink:href="#DejaVuSans-2212"/>
       <use xlink:href="#DejaVuSans-31" x="83.789062"/>
       <use xlink:href="#DejaVuSans-30" x="147.412109"/>
      </g>
     </g>
    </g>
    <g id="xtick_13">
     <g id="line2d_17">
      <g>
       <use xlink:href="#m4599f00fc7" x="152.795455" y="128.16" style="stroke: #000000; stroke-width: 0.8"/>
      </g>
     </g>
     <g id="text_7">
      <!-- −5 -->
      <g transform="translate(145.424361 142.758438)scale(0.1 -0.1)">
       <use xlink:href="#DejaVuSans-2212"/>
       <use xlink:href="#DejaVuSans-35" x="83.789062"/>
      </g>
     </g>
    </g>
    <g id="xtick_14">
     <g id="line2d_18">
      <g>
       <use xlink:href="#m4599f00fc7" x="184.5" y="128.16" style="stroke: #000000; stroke-width: 0.8"/>
      </g>
     </g>
     <g id="text_8">
      <!-- 0 -->
      <g transform="translate(181.31875 142.758438)scale(0.1 -0.1)">
       <use xlink:href="#DejaVuSans-30"/>
      </g>
     </g>
    </g>
    <g id="xtick_15">
     <g id="line2d_19">
      <g>
       <use xlink:href="#m4599f00fc7" x="216.204545" y="128.16" style="stroke: #000000; stroke-width: 0.8"/>
      </g>
     </g>
     <g id="text_9">
      <!-- 5 -->
      <g transform="translate(213.023295 142.758438)scale(0.1 -0.1)">
       <use xlink:href="#DejaVuSans-35"/>
      </g>
     </g>
    </g>
    <g id="xtick_16">
     <g id="line2d_20">
      <g>
       <use xlink:href="#m4599f00fc7" x="247.909091" y="128.16" style="stroke: #000000; stroke-width: 0.8"/>
      </g>
     </g>
     <g id="text_10">
      <!-- 10 -->
      <g transform="translate(241.546591 142.758438)scale(0.1 -0.1)">
       <use xlink:href="#DejaVuSans-31"/>
       <use xlink:href="#DejaVuSans-30" x="63.623047"/>
      </g>
     </g>
    </g>
    <g id="xtick_17">
     <g id="line2d_21">
      <g>
       <use xlink:href="#m4599f00fc7" x="279.613636" y="128.16" style="stroke: #000000; stroke-width: 0.8"/>
      </g>
     </g>
     <g id="text_11">
      <!-- 15 -->
      <g transform="translate(273.251136 142.758438)scale(0.1 -0.1)">
       <use xlink:href="#DejaVuSans-31"/>
       <use xlink:href="#DejaVuSans-35" x="63.623047"/>
      </g>
     </g>
    </g>
    <g id="xtick_18">
     <g id="line2d_22">
      <g>
       <use xlink:href="#m4599f00fc7" x="311.318182" y="128.16" style="stroke: #000000; stroke-width: 0.8"/>
      </g>
     </g>
     <g id="text_12">
      <!-- 20 -->
      <g transform="translate(304.955682 142.758438)scale(0.1 -0.1)">
       <use xlink:href="#DejaVuSans-32"/>
       <use xlink:href="#DejaVuSans-30" x="63.623047"/>
      </g>
     </g>
    </g>
   </g>
   <g id="matplotlib.axis_4">
    <g id="ytick_3">
     <g id="line2d_23">
      <g>
       <use xlink:href="#m50b4988964" x="45" y="113.558772" style="stroke: #000000; stroke-width: 0.8"/>
      </g>
     </g>
     <g id="text_13">
      <!-- −0.05 -->
      <g transform="translate(7.354687 117.357991)scale(0.1 -0.1)">
       <use xlink:href="#DejaVuSans-2212"/>
       <use xlink:href="#DejaVuSans-30" x="83.789062"/>
       <use xlink:href="#DejaVuSans-2e" x="147.412109"/>
       <use xlink:href="#DejaVuSans-30" x="179.199219"/>
       <use xlink:href="#DejaVuSans-35" x="242.822266"/>
      </g>
     </g>
    </g>
    <g id="ytick_4">
     <g id="line2d_24">
      <g>
       <use xlink:href="#m50b4988964" x="45" y="80.050909" style="stroke: #000000; stroke-width: 0.8"/>
      </g>
     </g>
     <g id="text_14">
      <!-- 0.00 -->
      <g transform="translate(15.734375 83.850128)scale(0.1 -0.1)">
       <use xlink:href="#DejaVuSans-30"/>
       <use xlink:href="#DejaVuSans-2e" x="63.623047"/>
       <use xlink:href="#DejaVuSans-30" x="95.410156"/>
       <use xlink:href="#DejaVuSans-30" x="159.033203"/>
      </g>
     </g>
    </g>
   </g>
   <g id="LineCollection_2">
    <path d="M 57.681818 80.050909 
L 57.681818 86.361034 
" clip-path="url(#p93829bd2a0)" style="fill: none; stroke: #1f77b4; stroke-width: 1.5"/>
    <path d="M 64.022727 80.050909 
L 64.022727 86.382702 
" clip-path="url(#p93829bd2a0)" style="fill: none; stroke: #1f77b4; stroke-width: 1.5"/>
    <path d="M 70.363636 80.050909 
L 70.363636 86.354574 
" clip-path="url(#p93829bd2a0)" style="fill: none; stroke: #1f77b4; stroke-width: 1.5"/>
    <path d="M 76.704545 80.050909 
L 76.704545 86.347304 
" clip-path="url(#p93829bd2a0)" style="fill: none; stroke: #1f77b4; stroke-width: 1.5"/>
    <path d="M 83.045455 80.050909 
L 83.045455 86.362279 
" clip-path="url(#p93829bd2a0)" style="fill: none; stroke: #1f77b4; stroke-width: 1.5"/>
    <path d="M 89.386364 80.050909 
L 89.386364 86.374502 
" clip-path="url(#p93829bd2a0)" style="fill: none; stroke: #1f77b4; stroke-width: 1.5"/>
    <path d="M 95.727273 80.050909 
L 95.727273 86.38083 
" clip-path="url(#p93829bd2a0)" style="fill: none; stroke: #1f77b4; stroke-width: 1.5"/>
    <path d="M 102.068182 80.050909 
L 102.068182 86.360024 
" clip-path="url(#p93829bd2a0)" style="fill: none; stroke: #1f77b4; stroke-width: 1.5"/>
    <path d="M 108.409091 80.050909 
L 108.409091 86.35612 
" clip-path="url(#p93829bd2a0)" style="fill: none; stroke: #1f77b4; stroke-width: 1.5"/>
    <path d="M 114.75 80.050909 
L 114.75 86.364787 
" clip-path="url(#p93829bd2a0)" style="fill: none; stroke: #1f77b4; stroke-width: 1.5"/>
    <path d="M 121.090909 80.050909 
L 121.090909 86.370188 
" clip-path="url(#p93829bd2a0)" style="fill: none; stroke: #1f77b4; stroke-width: 1.5"/>
    <path d="M 127.431818 80.050909 
L 127.431818 86.353454 
" clip-path="url(#p93829bd2a0)" style="fill: none; stroke: #1f77b4; stroke-width: 1.5"/>
    <path d="M 133.772727 80.050909 
L 133.772727 86.350685 
" clip-path="url(#p93829bd2a0)" style="fill: none; stroke: #1f77b4; stroke-width: 1.5"/>
    <path d="M 140.113636 80.050909 
L 140.113636 86.352153 
" clip-path="url(#p93829bd2a0)" style="fill: none; stroke: #1f77b4; stroke-width: 1.5"/>
    <path d="M 146.454545 80.050909 
L 146.454545 86.361343 
" clip-path="url(#p93829bd2a0)" style="fill: none; stroke: #1f77b4; stroke-width: 1.5"/>
    <path d="M 152.795455 80.050909 
L 152.795455 86.345686 
" clip-path="url(#p93829bd2a0)" style="fill: none; stroke: #1f77b4; stroke-width: 1.5"/>
    <path d="M 159.136364 80.050909 
L 159.136364 86.359627 
" clip-path="url(#p93829bd2a0)" style="fill: none; stroke: #1f77b4; stroke-width: 1.5"/>
    <path d="M 165.477273 80.050909 
L 165.477273 86.433551 
" clip-path="url(#p93829bd2a0)" style="fill: none; stroke: #1f77b4; stroke-width: 1.5"/>
    <path d="M 171.818182 80.050909 
L 171.818182 87.553609 
" clip-path="url(#p93829bd2a0)" style="fill: none; stroke: #1f77b4; stroke-width: 1.5"/>
    <path d="M 178.159091 80.050909 
L 178.159091 111.822063 
" clip-path="url(#p93829bd2a0)" style="fill: none; stroke: #1f77b4; stroke-width: 1.5"/>
    <path d="M 184.5 80.050909 
L 184.5 125.869091 
" clip-path="url(#p93829bd2a0)" style="fill: none; stroke: #1f77b4; stroke-width: 1.5"/>
    <path d="M 190.840909 80.050909 
L 190.840909 103.951367 
" clip-path="url(#p93829bd2a0)" style="fill: none; stroke: #1f77b4; stroke-width: 1.5"/>
    <path d="M 197.181818 80.050909 
L 197.181818 86.343786 
" clip-path="url(#p93829bd2a0)" style="fill: none; stroke: #1f77b4; stroke-width: 1.5"/>
    <path d="M 203.522727 80.050909 
L 203.522727 86.458468 
" clip-path="url(#p93829bd2a0)" style="fill: none; stroke: #1f77b4; stroke-width: 1.5"/>
    <path d="M 209.863636 80.050909 
L 209.863636 86.346017 
" clip-path="url(#p93829bd2a0)" style="fill: none; stroke: #1f77b4; stroke-width: 1.5"/>
    <path d="M 216.204545 80.050909 
L 216.204545 86.348534 
" clip-path="url(#p93829bd2a0)" style="fill: none; stroke: #1f77b4; stroke-width: 1.5"/>
    <path d="M 222.545455 80.050909 
L 222.545455 86.340567 
" clip-path="url(#p93829bd2a0)" style="fill: none; stroke: #1f77b4; stroke-width: 1.5"/>
    <path d="M 228.886364 80.050909 
L 228.886364 86.341645 
" clip-path="url(#p93829bd2a0)" style="fill: none; stroke: #1f77b4; stroke-width: 1.5"/>
    <path d="M 235.227273 80.050909 
L 235.227273 86.342549 
" clip-path="url(#p93829bd2a0)" style="fill: none; stroke: #1f77b4; stroke-width: 1.5"/>
    <path d="M 241.568182 80.050909 
L 241.568182 86.339595 
" clip-path="url(#p93829bd2a0)" style="fill: none; stroke: #1f77b4; stroke-width: 1.5"/>
    <path d="M 247.909091 80.050909 
L 247.909091 86.340654 
" clip-path="url(#p93829bd2a0)" style="fill: none; stroke: #1f77b4; stroke-width: 1.5"/>
    <path d="M 254.25 80.050909 
L 254.25 86.342898 
" clip-path="url(#p93829bd2a0)" style="fill: none; stroke: #1f77b4; stroke-width: 1.5"/>
    <path d="M 260.590909 80.050909 
L 260.590909 86.3499 
" clip-path="url(#p93829bd2a0)" style="fill: none; stroke: #1f77b4; stroke-width: 1.5"/>
    <path d="M 266.931818 80.050909 
L 266.931818 86.349386 
" clip-path="url(#p93829bd2a0)" style="fill: none; stroke: #1f77b4; stroke-width: 1.5"/>
    <path d="M 273.272727 80.050909 
L 273.272727 86.345782 
" clip-path="url(#p93829bd2a0)" style="fill: none; stroke: #1f77b4; stroke-width: 1.5"/>
    <path d="M 279.613636 80.050909 
L 279.613636 86.355654 
" clip-path="url(#p93829bd2a0)" style="fill: none; stroke: #1f77b4; stroke-width: 1.5"/>
    <path d="M 285.954545 80.050909 
L 285.954545 86.35752 
" clip-path="url(#p93829bd2a0)" style="fill: none; stroke: #1f77b4; stroke-width: 1.5"/>
    <path d="M 292.295455 80.050909 
L 292.295455 86.345924 
" clip-path="url(#p93829bd2a0)" style="fill: none; stroke: #1f77b4; stroke-width: 1.5"/>
    <path d="M 298.636364 80.050909 
L 298.636364 86.360622 
" clip-path="url(#p93829bd2a0)" style="fill: none; stroke: #1f77b4; stroke-width: 1.5"/>
    <path d="M 304.977273 80.050909 
L 304.977273 86.369367 
" clip-path="url(#p93829bd2a0)" style="fill: none; stroke: #1f77b4; stroke-width: 1.5"/>
    <path d="M 311.318182 80.050909 
L 311.318182 86.382617 
" clip-path="url(#p93829bd2a0)" style="fill: none; stroke: #1f77b4; stroke-width: 1.5"/>
   </g>
   <g id="line2d_25">
    <g clip-path="url(#p93829bd2a0)">
     <use xlink:href="#m56a956707e" x="57.681818" y="86.361034" style="fill: #1f77b4; stroke: #1f77b4"/>
     <use xlink:href="#m56a956707e" x="64.022727" y="86.382702" style="fill: #1f77b4; stroke: #1f77b4"/>
     <use xlink:href="#m56a956707e" x="70.363636" y="86.354574" style="fill: #1f77b4; stroke: #1f77b4"/>
     <use xlink:href="#m56a956707e" x="76.704545" y="86.347304" style="fill: #1f77b4; stroke: #1f77b4"/>
     <use xlink:href="#m56a956707e" x="83.045455" y="86.362279" style="fill: #1f77b4; stroke: #1f77b4"/>
     <use xlink:href="#m56a956707e" x="89.386364" y="86.374502" style="fill: #1f77b4; stroke: #1f77b4"/>
     <use xlink:href="#m56a956707e" x="95.727273" y="86.38083" style="fill: #1f77b4; stroke: #1f77b4"/>
     <use xlink:href="#m56a956707e" x="102.068182" y="86.360024" style="fill: #1f77b4; stroke: #1f77b4"/>
     <use xlink:href="#m56a956707e" x="108.409091" y="86.35612" style="fill: #1f77b4; stroke: #1f77b4"/>
     <use xlink:href="#m56a956707e" x="114.75" y="86.364787" style="fill: #1f77b4; stroke: #1f77b4"/>
     <use xlink:href="#m56a956707e" x="121.090909" y="86.370188" style="fill: #1f77b4; stroke: #1f77b4"/>
     <use xlink:href="#m56a956707e" x="127.431818" y="86.353454" style="fill: #1f77b4; stroke: #1f77b4"/>
     <use xlink:href="#m56a956707e" x="133.772727" y="86.350685" style="fill: #1f77b4; stroke: #1f77b4"/>
     <use xlink:href="#m56a956707e" x="140.113636" y="86.352153" style="fill: #1f77b4; stroke: #1f77b4"/>
     <use xlink:href="#m56a956707e" x="146.454545" y="86.361343" style="fill: #1f77b4; stroke: #1f77b4"/>
     <use xlink:href="#m56a956707e" x="152.795455" y="86.345686" style="fill: #1f77b4; stroke: #1f77b4"/>
     <use xlink:href="#m56a956707e" x="159.136364" y="86.359627" style="fill: #1f77b4; stroke: #1f77b4"/>
     <use xlink:href="#m56a956707e" x="165.477273" y="86.433551" style="fill: #1f77b4; stroke: #1f77b4"/>
     <use xlink:href="#m56a956707e" x="171.818182" y="87.553609" style="fill: #1f77b4; stroke: #1f77b4"/>
     <use xlink:href="#m56a956707e" x="178.159091" y="111.822063" style="fill: #1f77b4; stroke: #1f77b4"/>
     <use xlink:href="#m56a956707e" x="184.5" y="125.869091" style="fill: #1f77b4; stroke: #1f77b4"/>
     <use xlink:href="#m56a956707e" x="190.840909" y="103.951367" style="fill: #1f77b4; stroke: #1f77b4"/>
     <use xlink:href="#m56a956707e" x="197.181818" y="86.343786" style="fill: #1f77b4; stroke: #1f77b4"/>
     <use xlink:href="#m56a956707e" x="203.522727" y="86.458468" style="fill: #1f77b4; stroke: #1f77b4"/>
     <use xlink:href="#m56a956707e" x="209.863636" y="86.346017" style="fill: #1f77b4; stroke: #1f77b4"/>
     <use xlink:href="#m56a956707e" x="216.204545" y="86.348534" style="fill: #1f77b4; stroke: #1f77b4"/>
     <use xlink:href="#m56a956707e" x="222.545455" y="86.340567" style="fill: #1f77b4; stroke: #1f77b4"/>
     <use xlink:href="#m56a956707e" x="228.886364" y="86.341645" style="fill: #1f77b4; stroke: #1f77b4"/>
     <use xlink:href="#m56a956707e" x="235.227273" y="86.342549" style="fill: #1f77b4; stroke: #1f77b4"/>
     <use xlink:href="#m56a956707e" x="241.568182" y="86.339595" style="fill: #1f77b4; stroke: #1f77b4"/>
     <use xlink:href="#m56a956707e" x="247.909091" y="86.340654" style="fill: #1f77b4; stroke: #1f77b4"/>
     <use xlink:href="#m56a956707e" x="254.25" y="86.342898" style="fill: #1f77b4; stroke: #1f77b4"/>
     <use xlink:href="#m56a956707e" x="260.590909" y="86.3499" style="fill: #1f77b4; stroke: #1f77b4"/>
     <use xlink:href="#m56a956707e" x="266.931818" y="86.349386" style="fill: #1f77b4; stroke: #1f77b4"/>
     <use xlink:href="#m56a956707e" x="273.272727" y="86.345782" style="fill: #1f77b4; stroke: #1f77b4"/>
     <use xlink:href="#m56a956707e" x="279.613636" y="86.355654" style="fill: #1f77b4; stroke: #1f77b4"/>
     <use xlink:href="#m56a956707e" x="285.954545" y="86.35752" style="fill: #1f77b4; stroke: #1f77b4"/>
     <use xlink:href="#m56a956707e" x="292.295455" y="86.345924" style="fill: #1f77b4; stroke: #1f77b4"/>
     <use xlink:href="#m56a956707e" x="298.636364" y="86.360622" style="fill: #1f77b4; stroke: #1f77b4"/>
     <use xlink:href="#m56a956707e" x="304.977273" y="86.369367" style="fill: #1f77b4; stroke: #1f77b4"/>
     <use xlink:href="#m56a956707e" x="311.318182" y="86.382617" style="fill: #1f77b4; stroke: #1f77b4"/>
    </g>
   </g>
   <g id="line2d_26">
    <path d="M 57.681818 80.050909 
L 311.318182 80.050909 
" clip-path="url(#p93829bd2a0)" style="fill: none; stroke: #1f77b4; stroke-width: 0.5; stroke-linecap: square"/>
   </g>
   <g id="patch_8">
    <path d="M 45 128.16 
L 45 77.76 
" style="fill: none; stroke: #000000; stroke-width: 0.8; stroke-linejoin: miter; stroke-linecap: square"/>
   </g>
   <g id="patch_9">
    <path d="M 324 128.16 
L 324 77.76 
" style="fill: none; stroke: #000000; stroke-width: 0.8; stroke-linejoin: miter; stroke-linecap: square"/>
   </g>
   <g id="patch_10">
    <path d="M 45 128.16 
L 324 128.16 
" style="fill: none; stroke: #000000; stroke-width: 0.8; stroke-linejoin: miter; stroke-linecap: square"/>
   </g>
   <g id="patch_11">
    <path d="M 45 77.76 
L 324 77.76 
" style="fill: none; stroke: #000000; stroke-width: 0.8; stroke-linejoin: miter; stroke-linecap: square"/>
   </g>
  </g>
 </g>
 <defs>
  <clipPath id="p0d12e2421c">
   <rect x="45" y="17.28" width="279" height="50.4"/>
  </clipPath>
  <clipPath id="p93829bd2a0">
   <rect x="45" y="77.76" width="279" height="50.4"/>
  </clipPath>
 </defs>
</svg>
